<?xml version="1.0" encoding="UTF-8"?>
<svg version="1.1" xmlns="http://www.w3.org/2000/svg" width="242" height="208">
<path d="M0 0 C79.86 0 159.72 0 242 0 C242 68.64 242 137.28 242 208 C162.14 208 82.28 208 0 208 C0 139.36 0 70.72 0 0 Z " fill="#FEFEFE" transform="translate(0,0)"/>
<path d="M0 0 C0 2.97 0 5.94 0 9 C-1.32 9.33 -2.64 9.66 -4 10 C-5.78411821 11.92130588 -5.78411821 11.92130588 -7.25 14.3125 C-7.77078125 15.09238281 -8.2915625 15.87226562 -8.828125 16.67578125 C-10.30014166 19.16145804 -10.30014166 19.16145804 -10 23 C-9.65066406 22.4946875 -9.30132812 21.989375 -8.94140625 21.46875 C-8.25884766 20.49421875 -8.25884766 20.49421875 -7.5625 19.5 C-6.88380859 18.52546875 -6.88380859 18.52546875 -6.19140625 17.53125 C-5.60166016 16.77328125 -5.60166016 16.77328125 -5 16 C-4.67 16 -4.34 16 -4 16 C-4.00666183 16.92961296 -4.00666183 16.92961296 -4.01345825 17.87800598 C-4.0576436 24.31781716 -4.08784645 30.75758541 -4.10986328 37.19750977 C-4.11993201 39.60214995 -4.13358785 42.00677786 -4.15087891 44.41137695 C-4.17508874 47.86412584 -4.18647432 51.3167131 -4.1953125 54.76953125 C-4.20563507 55.84773636 -4.21595764 56.92594147 -4.22659302 58.03681946 C-4.22674408 59.03763046 -4.22689514 60.03844147 -4.22705078 61.06958008 C-4.23371262 62.39195427 -4.23371262 62.39195427 -4.24050903 63.74104309 C-4.14640061 66.28251649 -4.14640061 66.28251649 -2 69 C-7.73530755 67.67646749 -13.22534195 65.95503777 -18.77734375 64 C-26.37692124 61.64182808 -33.35458589 60.67846819 -41.3125 60.75 C-42.19228516 60.74226563 -43.07207031 60.73453125 -43.97851562 60.7265625 C-45.25178711 60.73042969 -45.25178711 60.73042969 -46.55078125 60.734375 C-47.69027222 60.73775879 -47.69027222 60.73775879 -48.8527832 60.74121094 C-51.26391825 61.03180823 -52.90352758 61.80269518 -55 63 C-56.13916016 60.77368164 -56.13916016 60.77368164 -57 58 C-56.22412109 55.82202148 -56.22412109 55.82202148 -54.7734375 53.62109375 C-54.24129639 52.7911792 -53.70915527 51.96126465 -53.16088867 51.10620117 C-52.57154541 50.22552979 -51.98220215 49.3448584 -51.375 48.4375 C-50.16902373 46.56870715 -48.96463814 44.69888699 -47.76171875 42.828125 C-46.82851807 41.39243164 -46.82851807 41.39243164 -45.87646484 39.92773438 C-42.87457274 35.24406405 -40.03099903 30.468409 -37.1875 25.6875 C-36.18107853 24.00385308 -35.17457663 22.32025423 -34.16796875 20.63671875 C-33.44508745 19.42461335 -32.72233652 18.21243013 -32 17 C-29.08014819 17.68088981 -26.64877696 18.58101234 -24 20 C-24 20.66 -24 21.32 -24 22 C-21.22640905 22.60774373 -21.22640905 22.60774373 -18 22 C-15.76504464 19.88291716 -14.27455795 17.37167436 -12.6875 14.75 C-12.24599609 14.06808594 -11.80449219 13.38617188 -11.34960938 12.68359375 C-8.95552894 8.99386318 -8.95552894 8.99386318 -7.52270508 4.87988281 C-7 3 -7 3 -4.5625 1.25 C-2 0 -2 0 0 0 Z " fill="#E3EBEF" transform="translate(121,65)"/>
<path d="M0 0 C2.68690776 1.08830179 3.10538261 2.26836088 4.265625 4.87890625 C4.60078125 5.61238281 4.9359375 6.34585938 5.28125 7.1015625 C5.52359375 7.66746094 5.7659375 8.23335937 6.015625 8.81640625 C6.675625 8.15640625 7.335625 7.49640625 8.015625 6.81640625 C10.33837677 6.41593181 12.67301857 6.07669585 15.015625 5.81640625 C19.28586433 12.4127109 22.90206569 19.31407152 26.453125 26.31640625 C26.91444824 27.21327148 27.37577148 28.11013672 27.85107422 29.03417969 C28.27533691 29.88012695 28.69959961 30.72607422 29.13671875 31.59765625 C29.5227124 32.36142578 29.90870605 33.12519531 30.30639648 33.91210938 C30.6574646 34.85473633 30.6574646 34.85473633 31.015625 35.81640625 C29.38923147 39.06919332 25.86858182 39.68809546 22.640625 41.00390625 C11.49526277 45.72553196 2.32284212 52.11333406 -6.984375 59.81640625 C-8.33402344 60.83154297 -8.33402344 60.83154297 -9.7109375 61.8671875 C-12.22665754 63.68596315 -12.22665754 63.68596315 -12.984375 66.81640625 C-12.09878906 66.45289062 -11.21320313 66.089375 -10.30078125 65.71484375 C22.90496634 52.18926586 22.90496634 52.18926586 37.015625 52.81640625 C35.5656461 56.60865876 33.84663949 60.19450909 32.015625 63.81640625 C30.76910156 63.85378906 29.52257812 63.89117187 28.23828125 63.9296875 C11.46363721 64.53470184 -5.8376605 65.87232522 -20.984375 73.81640625 C-21.52846244 63.11148591 -16.26039354 53.27228474 -9.40234375 45.2734375 C2.75781562 32.91682967 2.75781562 32.91682967 10.015625 29.81640625 C9.43469578 26.21528039 8.47685486 23.43805708 6.73046875 20.2421875 C6.28251953 19.41009766 5.83457031 18.57800781 5.37304688 17.72070312 C4.90447266 16.86541016 4.43589844 16.01011719 3.953125 15.12890625 C3.02107259 13.41866002 2.09250222 11.70651003 1.16796875 9.9921875 C0.75538818 9.23848877 0.34280762 8.48479004 -0.08227539 7.70825195 C-0.984375 5.81640625 -0.984375 5.81640625 -0.984375 3.81640625 C-1.68304688 4.18894531 -2.38171875 4.56148438 -3.1015625 4.9453125 C-4.01164062 5.41839844 -4.92171875 5.89148438 -5.859375 6.37890625 C-6.76429688 6.85457031 -7.66921875 7.33023438 -8.6015625 7.8203125 C-9.78105469 8.31337891 -9.78105469 8.31337891 -10.984375 8.81640625 C-11.644375 8.48640625 -12.304375 8.15640625 -12.984375 7.81640625 C-11.5277073 6.66845619 -10.06898563 5.52311206 -8.609375 4.37890625 C-7.79726562 3.74082031 -6.98515625 3.10273437 -6.1484375 2.4453125 C-2.58233863 -0.23891716 -2.58233863 -0.23891716 0 0 Z " fill="#F0F0F0" transform="translate(140.984375,60.18359375)"/>
<path d="M0 0 C2.04054838 3.73959358 4.05391289 7.49315662 6.0625 11.25 C6.64322266 12.31347656 7.22394531 13.37695312 7.82226562 14.47265625 C8.36689453 15.49746094 8.91152344 16.52226563 9.47265625 17.578125 C10.23461304 18.99206543 10.23461304 18.99206543 11.01196289 20.43457031 C12.08630815 23.22409835 12.18476668 24.29363604 11 27 C9.28515625 28.38671875 9.28515625 28.38671875 7.0625 29.6875 C-4.04280037 36.74969419 -12.34126998 45.54685629 -17 58 C-18.32 58 -19.64 58 -21 58 C-21.33 60.64 -21.66 63.28 -22 66 C-22.33 66 -22.66 66 -23 66 C-23.33 50.16 -23.66 34.32 -24 18 C-26.475 21.465 -26.475 21.465 -29 25 C-29.33 25 -29.66 25 -30 25 C-29.76318849 19.31652366 -28.0719337 16.08923436 -24.765625 11.50390625 C-22.43106309 9.51539666 -20.9841888 9.90326779 -18 10 C-17.401875 9.236875 -16.80375 8.47375 -16.1875 7.6875 C-13.60352186 4.51289828 -11.68408255 3.86342663 -7.8984375 2.625 C-5.87758371 2.01058186 -5.87758371 2.01058186 -3.625 0.8125 C-2 0 -2 0 0 0 Z " fill="#F7F9F8" transform="translate(140,64)"/>
<path d="M0 0 C0 2.97 0 5.94 0 9 C-1.32 9.33 -2.64 9.66 -4 10 C-5.57174221 11.66056208 -5.57174221 11.66056208 -6.875 13.78125 C-7.64070313 14.92013672 -7.64070313 14.92013672 -8.421875 16.08203125 C-8.94265625 16.87996094 -9.4634375 17.67789063 -10 18.5 C-11.03111587 20.07985327 -12.07239466 21.65313246 -13.125 23.21875 C-13.80949219 24.2696582 -13.80949219 24.2696582 -14.5078125 25.34179688 C-16.29388016 27.32657625 -17.36675099 27.73251199 -20 28 C-22.25390625 26.96875 -22.25390625 26.96875 -24.5625 25.5 C-26.79976167 24.02063801 -26.79976167 24.02063801 -29 23 C-33.08288689 24.3609623 -33.88685817 26.47953322 -36.1875 30.0625 C-36.90292969 31.16722656 -37.61835937 32.27195313 -38.35546875 33.41015625 C-38.89816406 34.26480469 -39.44085938 35.11945313 -40 36 C-36.38144425 35.37611108 -35.8290723 34.8290723 -33 32 C-33 37.94 -33 43.88 -33 50 C-35.64 50 -38.28 50 -41 50 C-40.41734375 50.23074219 -39.8346875 50.46148437 -39.234375 50.69921875 C-37.48286901 51.39596563 -35.73301746 52.09687857 -33.984375 52.80078125 C-31.99837526 53.59882041 -30.00876402 54.38793136 -28.015625 55.16796875 C-10.38825911 62.22348178 -10.38825911 62.22348178 -8 67 C-8.65484375 66.81824219 -9.3096875 66.63648438 -9.984375 66.44921875 C-11.93117737 65.91302318 -13.8806735 65.38656029 -15.83203125 64.8671875 C-17.7990548 64.32874209 -19.75757505 63.7566112 -21.69921875 63.1328125 C-28.33567665 61.14471527 -34.6174285 60.71404027 -41.5 60.6875 C-42.37325928 60.68210205 -43.24651855 60.6767041 -44.14624023 60.67114258 C-48.38929759 60.71860407 -51.24455747 60.86820289 -55 63 C-56.13916016 60.77368164 -56.13916016 60.77368164 -57 58 C-56.22412109 55.82202148 -56.22412109 55.82202148 -54.7734375 53.62109375 C-54.24129639 52.7911792 -53.70915527 51.96126465 -53.16088867 51.10620117 C-52.57154541 50.22552979 -51.98220215 49.3448584 -51.375 48.4375 C-50.16902373 46.56870715 -48.96463814 44.69888699 -47.76171875 42.828125 C-46.82851807 41.39243164 -46.82851807 41.39243164 -45.87646484 39.92773438 C-42.87457274 35.24406405 -40.03099903 30.468409 -37.1875 25.6875 C-36.18107853 24.00385308 -35.17457663 22.32025423 -34.16796875 20.63671875 C-33.44508745 19.42461335 -32.72233652 18.21243013 -32 17 C-29.08014819 17.68088981 -26.64877696 18.58101234 -24 20 C-24 20.66 -24 21.32 -24 22 C-21.22640905 22.60774373 -21.22640905 22.60774373 -18 22 C-15.76504464 19.88291716 -14.27455795 17.37167436 -12.6875 14.75 C-12.24599609 14.06808594 -11.80449219 13.38617188 -11.34960938 12.68359375 C-8.95552894 8.99386318 -8.95552894 8.99386318 -7.52270508 4.87988281 C-7 3 -7 3 -4.5625 1.25 C-2 0 -2 0 0 0 Z " fill="#2E73A3" transform="translate(121,65)"/>
<path d="M0 0 C2.85425549 1.33121721 3.4929106 3.02512268 4.90454102 5.81298828 C5.41952148 6.81587891 5.93450195 7.81876953 6.46508789 8.85205078 C6.99038086 9.90908203 7.51567383 10.96611328 8.05688477 12.05517578 C8.58604492 13.08900391 9.11520508 14.12283203 9.66040039 15.18798828 C12.29215993 20.36565322 14.7939689 25.5547654 16.99438477 30.93017578 C16.06239258 31.34267578 15.13040039 31.75517578 14.17016602 32.18017578 C1.29274762 37.97356869 -10.13919293 44.8238078 -21.00561523 53.93017578 C-21.90280273 54.60564453 -22.79999023 55.28111328 -23.72436523 55.97705078 C-26.24769317 57.79811029 -26.24769317 57.79811029 -27.00561523 60.93017578 C-26.1200293 60.56666016 -25.23444336 60.20314453 -24.32202148 59.82861328 C8.8837261 46.3030354 8.8837261 46.3030354 22.99438477 46.93017578 C21.54440587 50.72242829 19.82539926 54.30827863 17.99438477 57.93017578 C16.74786133 57.96755859 15.50133789 58.00494141 14.21704102 58.04345703 C-0.59980585 58.57785912 -14.68281843 59.95359257 -28.68530273 65.16064453 C-31.00561523 65.93017578 -31.00561523 65.93017578 -34.00561523 65.93017578 C-30.6966226 60.27556811 -26.86509968 55.48923287 -22.25561523 50.86767578 C-21.77181396 50.37871826 -21.2880127 49.88976074 -20.78955078 49.38598633 C-17.26456226 45.93017578 -17.26456226 45.93017578 -15.00561523 45.93017578 C-15.00561523 45.27017578 -15.00561523 44.61017578 -15.00561523 43.93017578 C-12.54634584 41.86730318 -9.76699607 40.22492816 -7.06811523 38.49267578 C-6.33270508 38.0021875 -5.59729492 37.51169922 -4.83959961 37.00634766 C0.23654481 33.72126205 5.17301308 31.5554056 10.99438477 29.93017578 C10.46329102 28.86798828 9.93219727 27.80580078 9.38500977 26.71142578 C5.9214681 19.78434245 2.45792643 12.85725911 -1.00561523 5.93017578 C-2.32561523 5.93017578 -3.64561523 5.93017578 -5.00561523 5.93017578 C-5.00561523 4.61017578 -5.00561523 3.29017578 -5.00561523 1.93017578 C-2.00561523 -0.06982422 -2.00561523 -0.06982422 0 0 Z " fill="#545454" transform="translate(155.005615234375,66.06982421875)"/>
<path d="M0 0 C1.97934889 3.88621458 3.4149357 7.93024031 5 12 C0.38 12.99 -4.24 13.98 -9 15 C-9 15.66 -9 16.32 -9 17 C-9.74121094 17.21914062 -10.48242188 17.43828125 -11.24609375 17.6640625 C-19.2787032 20.08269399 -27.1753079 22.7861095 -35.07421875 25.60546875 C-39.36208072 27.13530895 -43.67323551 28.58396799 -48 30 C-44.6866191 23.76690721 -39.51138774 20.23221949 -34 16 C-33.21367187 15.38769531 -32.42734375 14.77539062 -31.6171875 14.14453125 C-24.93588136 9.19583501 -8.44668965 -2.81556322 0 0 Z " fill="#EDEDED" transform="translate(174,98)"/>
<path d="M0 0 C0 0.66 0 1.32 0 2 C3.08883828 2.07533752 5.94703808 2.00882699 9 1.5 C17.87139656 0.12000498 27.14837974 0.77908686 36 2 C36 1.34 36 0.68 36 0 C38.31 0.66 40.62 1.32 43 2 C43.33 1.67 43.66 1.34 44 1 C48.52642225 0.84911926 52.58300512 0.89575128 57 2 C56.67 3.32 56.34 4.64 56 6 C54.33333333 6 52.66666667 6 51 6 C50.67 7.32 50.34 8.64 50 10 C32.84 10 15.68 10 -2 10 C-1.67 9.34 -1.34 8.68 -1 8 C-2.32 7.67 -3.64 7.34 -5 7 C-5 5.02 -5 3.04 -5 1 C-3 0 -3 0 0 0 Z " fill="#F3F3F3" transform="translate(69,198)"/>
<path d="M0 0 C0 16.17 0 32.34 0 49 C-11 42 -11 42 -12.42578125 35.68359375 C-12.45919036 33.26816506 -12.41844587 30.85083533 -12.3125 28.4375 C-12.28792725 27.19000977 -12.26335449 25.94251953 -12.23803711 24.65722656 C-11.9463476 18.95158607 -8.93740127 0 0 0 Z " fill="#535453" transform="translate(117,81)"/>
<path d="M0 0 C3.24182881 1.46857283 3.85257655 3.82717937 5.328125 7.00390625 C5.92778873 8.26851228 6.52807566 9.53282294 7.12890625 10.796875 C7.59804443 11.80113525 7.59804443 11.80113525 8.07666016 12.82568359 C9.82580017 16.52096574 11.67701333 20.16506149 13.515625 23.81640625 C14.20226023 25.18858334 14.8884966 26.56096014 15.57421875 27.93359375 C16.07050781 28.92617187 16.56679687 29.91875 17.078125 30.94140625 C14.67727807 33.58788438 12.07644186 35.24312829 9.015625 37.06640625 C-3.31164724 44.8014846 -13.00148964 54.6273599 -18.921875 67.94140625 C-20.17464668 65.01827232 -19.90414856 63.8921937 -18.8046875 60.83984375 C-12.3375925 47.87691111 -3.16709177 36.56401463 10.078125 29.94140625 C9.49719578 26.34028039 8.53935486 23.56305708 6.79296875 20.3671875 C6.34501953 19.53509766 5.89707031 18.70300781 5.43554688 17.84570312 C4.96697266 16.99041016 4.49839844 16.13511719 4.015625 15.25390625 C3.08357259 13.54366002 2.15500222 11.83151003 1.23046875 10.1171875 C0.81788818 9.36348877 0.40530762 8.60979004 -0.01977539 7.83325195 C-0.921875 5.94140625 -0.921875 5.94140625 -0.921875 3.94140625 C-1.62054688 4.31394531 -2.31921875 4.68648438 -3.0390625 5.0703125 C-3.94914063 5.54339844 -4.85921875 6.01648438 -5.796875 6.50390625 C-6.70179688 6.97957031 -7.60671875 7.45523438 -8.5390625 7.9453125 C-9.71855469 8.43837891 -9.71855469 8.43837891 -10.921875 8.94140625 C-11.581875 8.61140625 -12.241875 8.28140625 -12.921875 7.94140625 C-11.4652073 6.79345619 -10.00648563 5.64811206 -8.546875 4.50390625 C-7.73476562 3.86582031 -6.92265625 3.22773437 -6.0859375 2.5703125 C-2.56719949 -0.07826828 -2.56719949 -0.07826828 0 0 Z " fill="#545454" transform="translate(140.921875,60.05859375)"/>
<path d="M0 0 C9 0 9 0 10.875 0.5 C13.28510625 1.15269289 13.28510625 1.15269289 17 1 C17.33 1.33 17.66 1.66 18 2 C18.33 1.34 18.66 0.68 19 0 C22.33085988 -0.06531098 25.41799235 -0.12181556 28.6875 0.5625 C31.16393458 1.03101465 32.63315731 0.78894756 35 0 C35.495 2.475 35.495 2.475 36 5 C36 3.68 36 2.36 36 1 C36.66 1 37.32 1 38 1 C38 2.32 38 3.64 38 5 C39.32 5 40.64 5 42 5 C41.67 5.66 41.34 6.32 41 7 C37.14186658 7.07419487 33.70374632 7.11112389 30 6 C27.48823926 5.18068911 27.48823926 5.18068911 25 5 C24.32710937 5.72896484 24.32710937 5.72896484 23.640625 6.47265625 C22 8 22 8 19.73828125 8.29296875 C18.93777344 8.25816406 18.13726562 8.22335938 17.3125 8.1875 C16.10013672 8.14689453 16.10013672 8.14689453 14.86328125 8.10546875 C14.24839844 8.07066406 13.63351563 8.03585938 13 8 C13.33 8.66 13.66 9.32 14 10 C9.05 10 4.1 10 -1 10 C-0.67 8.35 -0.34 6.7 0 5 C0 4.01 0 3.02 0 2 C0 1.34 0 0.68 0 0 Z " fill="#F5F5F5" transform="translate(134,198)"/>
<path d="M0 0 C6 2 6 2 10 4 C10 11.92 10 19.84 10 28 C6.62380498 27.15595125 3.3015148 26.10050493 0 25 C0 16.75 0 8.5 0 0 Z " fill="#4C4E4C" transform="translate(92,92)"/>
<path d="M0 0 C13.46656666 2.10415104 29.39019739 6.92246364 39 17 C38.34515625 16.81824219 37.6903125 16.63648438 37.015625 16.44921875 C35.06695405 15.91250853 33.11622418 15.38324624 31.1640625 14.859375 C29.21504082 14.33001109 27.27086159 13.78189995 25.3359375 13.203125 C15.41920038 10.40243267 5.23129671 9.8142886 -5 9 C-3.35 6.03 -1.7 3.06 0 0 Z " fill="#1571AD" transform="translate(74,115)"/>
<path d="M0 0 C0.33 0 0.66 0 1 0 C1 5.94 1 11.88 1 18 C-1.64 18 -4.28 18 -7 18 C-7.99 18.33 -8.98 18.66 -10 19 C-10.99 18.67 -11.98 18.34 -13 18 C-13.28875 18.763125 -13.5775 19.52625 -13.875 20.3125 C-15 23 -15 23 -17 26 C-13.7 26.33 -10.4 26.66 -7 27 C-7 27.33 -7 27.66 -7 28 C-7.67546875 28.04898438 -8.3509375 28.09796875 -9.046875 28.1484375 C-9.93890625 28.22320312 -10.8309375 28.29796875 -11.75 28.375 C-12.63171875 28.44460937 -13.5134375 28.51421875 -14.421875 28.5859375 C-16.99066382 28.99850055 -18.75841015 29.71160957 -21 31 C-21.66 29.35 -22.32 27.7 -23 26 C-22.57589844 25.55011719 -22.15179688 25.10023437 -21.71484375 24.63671875 C-17.38364049 19.88667385 -13.99133726 14.98258077 -10.7734375 9.41796875 C-8.78434971 6.70597461 -6.932697 5.58422217 -4 4 C-2.64802142 2.68557638 -1.30973998 1.3565164 0 0 Z " fill="#E0F2F6" transform="translate(87,97)"/>
<path d="M0 0 C2.31 0.66 4.62 1.32 7 2 C7.33 1.67 7.66 1.34 8 1 C12.52642225 0.84911926 16.58300512 0.89575128 21 2 C20.67 3.32 20.34 4.64 20 6 C18.33333333 6 16.66666667 6 15 6 C14.67 7.32 14.34 8.64 14 10 C11.36 10 8.72 10 6 10 C6 9.34 6 8.68 6 8 C2.59437148 7.22157062 -0.50765756 6.90021879 -4 7 C-4.33 7.66 -4.66 8.32 -5 9 C-5 8.34 -5 7.68 -5 7 C-5.66 7 -6.32 7 -7 7 C-7.33 6.34 -7.66 5.68 -8 5 C-9.98 5.66 -11.96 6.32 -14 7 C-14.33 6.01 -14.66 5.02 -15 4 C-15.66 5.65 -16.32 7.3 -17 9 C-17.33 8.34 -17.66 7.68 -18 7 C-20.02463255 6.34786708 -20.02463255 6.34786708 -22 6 C-21.67 4.68 -21.34 3.36 -21 2 C-13.95540039 0.29221828 -7.09588944 1.09893467 0 2 C0 1.34 0 0.68 0 0 Z " fill="#F7F7F7" transform="translate(105,198)"/>
<path d="M0 0 C1.65 0 3.3 0 5 0 C7.475 4.95 7.475 4.95 10 10 C9.16082031 10.06316406 8.32164062 10.12632813 7.45703125 10.19140625 C-0.66835207 11.01874967 -8.11753296 12.73770168 -15.875 15.3125 C-16.7414917 15.59617432 -17.6079834 15.87984863 -18.50073242 16.17211914 C-23.77045661 17.98511382 -28.43982364 20.21675292 -33.19189453 23.13354492 C-34.08690674 23.56244019 -34.08690674 23.56244019 -35 24 C-35.66 23.67 -36.32 23.34 -37 23 C-10.69914473 5.49203421 -10.69914473 5.49203421 2 6 C1.34 4.02 0.68 2.04 0 0 Z " fill="#545454" transform="translate(169,100)"/>
<path d="M0 0 C2.31 0 4.62 0 7 0 C6.98316162 0.8470752 6.96632324 1.69415039 6.94897461 2.56689453 C6.90757874 5.73248651 6.90678285 8.89484672 6.93286133 12.06054688 C6.93592977 13.4261654 6.92315849 14.79192023 6.89379883 16.15722656 C6.47378124 24.2848237 6.47378124 24.2848237 10.00219727 31.16748047 C12.37951921 32.78386304 12.37951921 32.78386304 14.8671875 33.9296875 C17.68224461 35.34237184 18.74772525 37.16151056 20 40 C14.49495413 39.61592703 12.76519531 37.85484281 9 34 C6.40962302 32.48935025 3.73926148 31.21669431 1 30 C1 28 1 28 3 26 C3.27808217 23.47622345 3.27808217 23.47622345 3.1953125 20.5546875 C3.18886719 19.47832031 3.18242188 18.40195313 3.17578125 17.29296875 C3.15902344 16.16503906 3.14226562 15.03710938 3.125 13.875 C3.11597656 12.73933594 3.10695313 11.60367188 3.09765625 10.43359375 C3.07403098 7.62218701 3.04109013 4.81119702 3 2 C2.01 1.67 1.02 1.34 0 1 C0 0.67 0 0.34 0 0 Z " fill="#FBFDFC" transform="translate(99,94)"/>
<path d="M0 0 C1.32 0.66 2.64 1.32 4 2 C4.33 1.34 4.66 0.68 5 0 C8.33085988 -0.06531098 11.41799235 -0.12181556 14.6875 0.5625 C17.16393458 1.03101465 18.63315731 0.78894756 21 0 C21.33 1.65 21.66 3.3 22 5 C22 3.68 22 2.36 22 1 C22.66 1 23.32 1 24 1 C24 2.32 24 3.64 24 5 C25.32 5 26.64 5 28 5 C27.67 5.66 27.34 6.32 27 7 C23.14186658 7.07419487 19.70374632 7.11112389 16 6 C13.48823926 5.18068911 13.48823926 5.18068911 11 5 C9.1645201 6.33378575 9.1645201 6.33378575 8 8 C6.88625 7.5359375 6.88625 7.5359375 5.75 7.0625 C3.49307824 6.1905075 1.3549847 5.52332993 -1 5 C-0.34 4.67 0.32 4.34 1 4 C1 3.34 1 2.68 1 2 C0.34 1.67 -0.32 1.34 -1 1 C-0.67 0.67 -0.34 0.34 0 0 Z " fill="#9D9D9D" transform="translate(148,198)"/>
<path d="M0 0 C0.99 0.495 0.99 0.495 2 1 C2 7.27 2 13.54 2 20 C3.32 20.66 4.64 21.32 6 22 C6.66 21.67 7.32 21.34 8 21 C8.46651207 18.87423218 8.46651207 18.87423218 8.625 16.4375 C8.69976562 15.61121094 8.77453125 14.78492187 8.8515625 13.93359375 C8.90054688 13.29550781 8.94953125 12.65742187 9 12 C8.34 12 7.68 12 7 12 C6.67 9.36 6.34 6.72 6 4 C6.66 3.67 7.32 3.34 8 3 C8.66 3.33 9.32 3.66 10 4 C10 11.92 10 19.84 10 28 C6.62380498 27.15595125 3.3015148 26.10050493 0 25 C0 16.75 0 8.5 0 0 Z " fill="#4F5152" transform="translate(92,92)"/>
<path d="M0 0 C0.33 0 0.66 0 1 0 C1 5.94 1 11.88 1 18 C-2.3 17.34 -5.6 16.68 -9 16 C-8.00106368 11.00531841 -6.96714111 9.1454543 -4 5.1875 C-3.278125 4.21167969 -2.55625 3.23585938 -1.8125 2.23046875 C-1.214375 1.49441406 -0.61625 0.75835937 0 0 Z " fill="#4F4D50" transform="translate(87,97)"/>
<path d="M0 0 C-0.99 0.66 -1.98 1.32 -3 2 C-3 2.33 -3 2.66 -3 3 C-4.11181641 3.32871094 -4.11181641 3.32871094 -5.24609375 3.6640625 C-13.2787032 6.08269399 -21.1753079 8.7861095 -29.07421875 11.60546875 C-33.36208072 13.13530895 -37.67323551 14.58396799 -42 16 C-40.9375 13.5625 -40.9375 13.5625 -39 11 C-37.40207988 10.7620119 -35.79876769 10.54326952 -34.1875 10.42578125 C-31.31489194 9.86664861 -29.13971046 8.63314964 -26.5625 7.25 C-21.64685513 4.68342436 -16.76960645 2.73523856 -11.5 1.0625 C-10.81752197 0.83916992 -10.13504395 0.61583984 -9.43188477 0.38574219 C-5.98437028 -0.66896315 -3.41909728 -1.4042721 0 0 Z " fill="#DADADA" transform="translate(168,112)"/>
<path d="M0 0 C0.33 0 0.66 0 1 0 C1 1.65 1 3.3 1 5 C1.99 4.97679688 2.98 4.95359375 4 4.9296875 C10.93859261 4.81730741 17.33170085 4.8225962 24 7 C24 6.01 24 5.02 24 4 C29.89126992 5.55033419 35.02060001 8.54911639 40 12 C40.495 12.99 40.495 12.99 41 14 C40.34515625 13.81824219 39.6903125 13.63648438 39.015625 13.44921875 C37.06695405 12.91250853 35.11622418 12.38324624 33.1640625 11.859375 C31.21504082 11.33001109 29.27086159 10.78189995 27.3359375 10.203125 C17.4245411 7.403941 7.22766495 6.80056343 -3 6 C-2.01 4.02 -1.02 2.04 0 0 Z " fill="#2D6C9A" transform="translate(72,118)"/>
<path d="M0 0 C0.66 0 1.32 0 2 0 C2 0.66 2 1.32 2 2 C2.66 2.33 3.32 2.66 4 3 C3.67 3.66 3.34 4.32 3 5 C2.01 5 1.02 5 0 5 C0 4.34 0 3.68 0 3 C-0.66 3 -1.32 3 -2 3 C-2.33 3.99 -2.66 4.98 -3 6 C-3.70125 5.79375 -4.4025 5.5875 -5.125 5.375 C-8.60186072 4.92149643 -10.77398123 5.72459723 -14 7 C-14.33 6.01 -14.66 5.02 -15 4 C-15.66 5.65 -16.32 7.3 -17 9 C-17.33 8.34 -17.66 7.68 -18 7 C-20.02463255 6.34786708 -20.02463255 6.34786708 -22 6 C-21.67 4.68 -21.34 3.36 -21 2 C-13.95540039 0.29221828 -7.09588944 1.09893467 0 2 C0 1.34 0 0.68 0 0 Z " fill="#B5B5B5" transform="translate(105,198)"/>
<path d="M0 0 C0.66 1.32 1.32 2.64 2 4 C1.154375 4.969375 0.30875 5.93875 -0.5625 6.9375 C-6.26554088 13.62475361 -11.34527662 19.95960857 -15 28 C-16.25277168 25.07686607 -15.98227356 23.95078745 -14.8828125 20.8984375 C-10.85724194 12.82940496 -6.49630279 6.39318687 0 0 Z " fill="#5B5B5B" transform="translate(137,100)"/>
<path d="M0 0 C-0.71899918 3.23549631 -1.73563124 5.8390781 -3 9 C-7.62 9 -12.24 9 -17 9 C-16.01 6.69 -15.02 4.38 -14 2 C-13.21625 2.165 -12.4325 2.33 -11.625 2.5 C-9.11791961 3.0623707 -9.11791961 3.0623707 -7 3 C-7 2.34 -7 1.68 -7 1 C-4.50935112 0.31292445 -2.62113708 0 0 0 Z " fill="#F2F2F2" transform="translate(136,199)"/>
<path d="M0 0 C1.485 0.99 1.485 0.99 3 2 C2.67 2.33 2.34 2.66 2 3 C2.66 3.33 3.32 3.66 4 4 C4.33 3.34 4.66 2.68 5 2 C5.66 2.33 6.32 2.66 7 3 C7.33 2.01 7.66 1.02 8 0 C8.33 1.32 8.66 2.64 9 4 C9.67546875 3.90460938 10.3509375 3.80921875 11.046875 3.7109375 C12.38492188 3.54464844 12.38492188 3.54464844 13.75 3.375 C14.63171875 3.25898438 15.5134375 3.14296875 16.421875 3.0234375 C19.22859878 2.99792183 20.63384866 3.55156156 23 5 C22.67 5.66 22.34 6.32 22 7 C14.41 7 6.82 7 -1 7 C-0.67 4.69 -0.34 2.38 0 0 Z " fill="#FBFBFB" transform="translate(89,201)"/>
<path d="M0 0 C0.33 0 0.66 0 1 0 C1.31424507 3.45669582 1.37956836 5.39901677 -0.5 8.375 C-3.9667296 10.62837424 -7.03548907 10.51744097 -11 10 C-14.4375 9.125 -14.4375 9.125 -17 8 C-17.33 7.34 -17.66 6.68 -18 6 C-18.99 6 -19.98 6 -21 6 C-20.34 4.68 -19.68 3.36 -19 2 C-15.82666905 2.95937912 -13.17489648 3.88756655 -10.375 5.6875 C-8.15104622 7.15264498 -8.15104622 7.15264498 -5.9375 7.0625 C-2.97189168 5.43619866 -1.74440926 2.82714604 0 0 Z " fill="#D6EAEF" transform="translate(109,85)"/>
<path d="M0 0 C0 2.97 0 5.94 0 9 C-1.32 9.33 -2.64 9.66 -4 10 C-6.24850483 12.47661498 -6.24850483 12.47661498 -8 15 C-9.5114302 12.06110794 -10.16517991 10.63068692 -9.3125 7.375 C-7.34614491 3.81683365 -4.40556253 0 0 0 Z " fill="#2F709C" transform="translate(121,65)"/>
<path d="M0 0 C1.32 0.66 2.64 1.32 4 2 C2.52356953 5.38125527 0.58387568 7.69867944 -1.9375 10.375 C-5.03916597 13.7806405 -7.25657458 16.75040054 -9 21 C-9.33 21 -9.66 21 -10 21 C-10.1875 17.6875 -10.1875 17.6875 -10 14 C-9.03495425 12.96622696 -8.02821802 11.97096226 -7 11 C-5.91883122 9.31638891 -4.87909813 7.6056817 -3.875 5.875 C-1.08333333 1.08333333 -1.08333333 1.08333333 0 0 Z " fill="#E9E9E9" transform="translate(130,113)"/>
<path d="M0 0 C0.66 0.33 1.32 0.66 2 1 C1.47515308 5.55700425 -0.31507303 8.192874 -3.0625 11.8125 C-3.79597656 12.78832031 -4.52945313 13.76414062 -5.28515625 14.76953125 C-6.13400391 15.87361328 -6.13400391 15.87361328 -7 17 C-8.32 16.67 -9.64 16.34 -11 16 C-11 15.01 -11 14.02 -11 13 C-10.01 13 -9.02 13 -8 13 C-7.79375 12.34 -7.5875 11.68 -7.375 11 C-5.48847129 6.88393737 -2.79432021 3.5412297 0 0 Z " fill="#296D9C" transform="translate(111,76)"/>
<path d="M0 0 C0.66 0.33 1.32 0.66 2 1 C0.54819706 4.54022535 -1.25715817 6.24058755 -4.3125 8.5 C-5.11429688 9.10585937 -5.91609375 9.71171875 -6.7421875 10.3359375 C-8.46761069 11.60761618 -10.20084831 12.86869878 -11.9375 14.125 C-14.18559168 15.89196676 -14.18559168 15.89196676 -15.0625 18.6875 C-15.371875 19.450625 -15.68125 20.21375 -16 21 C-18.125 21.8125 -18.125 21.8125 -20 22 C-18.51601598 16.81581898 -15.25425041 13.83995403 -11.5 10.1875 C-10.60861328 9.2912793 -10.60861328 9.2912793 -9.69921875 8.37695312 C-5.26724107 4 -5.26724107 4 -3 4 C-3 3.34 -3 2.68 -3 2 C-2.01 1.34 -1.02 0.68 0 0 Z " fill="#555555" transform="translate(143,108)"/>
<path d="M0 0 C0.99 0.33 1.98 0.66 3 1 C1.68 3.31 0.36 5.62 -1 8 C2.3 8.33 5.6 8.66 9 9 C9 9.33 9 9.66 9 10 C8.32453125 10.04898438 7.6490625 10.09796875 6.953125 10.1484375 C6.06109375 10.22320312 5.1690625 10.29796875 4.25 10.375 C2.92742187 10.47941406 2.92742187 10.47941406 1.578125 10.5859375 C-0.99066382 10.99850055 -2.75841015 11.71160957 -5 13 C-5.66 11.35 -6.32 9.7 -7 8 C-4.69 5.36 -2.38 2.72 0 0 Z " fill="#CFE9F1" transform="translate(71,115)"/>
<path d="M0 0 C1.98 0 3.96 0 6 0 C6.33 1.65 6.66 3.3 7 5 C6.34 5 5.68 5 5 5 C4.67 4.34 4.34 3.68 4 3 C3.01 2.67 2.02 2.34 1 2 C1.515625 2.7425 2.03125 3.485 2.5625 4.25 C4 7 4 7 3.6875 9.3125 C3.460625 9.869375 3.23375 10.42625 3 11 C0.69 11 -1.62 11 -4 11 C-4.33 8.69 -4.66 6.38 -5 4 C-4.34 4 -3.68 4 -3 4 C-2.731875 4.639375 -2.46375 5.27875 -2.1875 5.9375 C-1.11332248 8.33131686 -1.11332248 8.33131686 2 9 C1.484375 8.2575 0.96875 7.515 0.4375 6.75 C-1 4 -1 4 -0.6875 1.6875 C-0.460625 1.130625 -0.23375 0.57375 0 0 Z " fill="#45708B" transform="translate(132,80)"/>
<path d="M0 0 C1.2065625 0.0309375 1.2065625 0.0309375 2.4375 0.0625 C1.4475 0.3925 0.4575 0.7225 -0.5625 1.0625 C-0.2325 2.0525 0.0975 3.0425 0.4375 4.0625 C0.45310763 5.69183154 0.40515104 7.32223097 0.31640625 8.94921875 C0.26806641 9.88701172 0.21972656 10.82480469 0.16992188 11.79101562 C0.11384766 12.76748047 0.05777344 13.74394531 0 14.75 C-0.05220703 15.73806641 -0.10441406 16.72613281 -0.15820312 17.74414062 C-0.28785306 20.18391676 -0.42281742 22.62328105 -0.5625 25.0625 C-1.2225 24.7325 -1.8825 24.4025 -2.5625 24.0625 C-2.7583691 20.25038097 -2.94279565 16.43779466 -3.125 12.625 C-3.18107422 11.53638672 -3.23714844 10.44777344 -3.29492188 9.32617188 C-3.34326172 8.29169922 -3.39160156 7.25722656 -3.44140625 6.19140625 C-3.4885376 5.23306885 -3.53566895 4.27473145 -3.58422852 3.28735352 C-3.55271976 0.06106947 -3.23336511 0.07886256 0 0 Z " fill="#FDFBF9" transform="translate(91.5625,89.9375)"/>
<path d="M0 0 C0.33 0.66 0.66 1.32 1 2 C5.44209357 2.10834375 9.61414671 1.70173653 14 1 C14 2.65 14 4.3 14 6 C12.54263913 6.19491452 11.08405407 6.38069358 9.625 6.5625 C8.81289062 6.66691406 8.00078125 6.77132812 7.1640625 6.87890625 C5 7 5 7 3 6 C3 5.01 3 4.02 3 3 C2.34 3 1.68 3 1 3 C0.67 3.99 0.34 4.98 0 6 C0 4.02 0 2.04 0 0 Z " fill="#A4A4A4" transform="translate(68,198)"/>
<path d="M0 0 C0.33 0 0.66 0 1 0 C2.29235715 4.91502758 2.11135517 9.77290102 2.0625 14.8125 C2.05798828 15.69615234 2.05347656 16.57980469 2.04882812 17.49023438 C2.03709866 19.66018559 2.01916495 21.83010172 2 24 C1.67 24 1.34 24 1 24 C0.67 18.39 0.34 12.78 0 7 C-1.32 8.32 -2.64 9.64 -4 11 C-4.99 11.33 -5.98 11.66 -7 12 C-5.48109469 7.44328408 -3.04597738 3.68276708 0 0 Z " fill="#D6E3E9" transform="translate(87,91)"/>
<path d="M0 0 C3.375 -0.125 3.375 -0.125 7 0 C7.66 0.66 8.32 1.32 9 2 C9.66 1.67 10.32 1.34 11 1 C10.67 2.32 10.34 3.64 10 5 C10.66 5.33 11.32 5.66 12 6 C11.01 6 10.02 6 9 6 C7.43593472 6.15127402 5.87340748 6.31902522 4.3125 6.5 C3.50425781 6.5928125 2.69601563 6.685625 1.86328125 6.78125 C0.94095703 6.88953125 0.94095703 6.88953125 0 7 C0.185625 6.21625 0.37125 5.4325 0.5625 4.625 C1.25962266 2.02910225 1.25962266 2.02910225 0 0 Z " fill="#A2A2A2" transform="translate(134,198)"/>
<path d="M0 0 C1.32 0.66 2.64 1.32 4 2 C4.33 1.34 4.66 0.68 5 0 C7.97 0.495 7.97 0.495 11 1 C10.67 2.98 10.34 4.96 10 7 C8.1875 7.625 8.1875 7.625 6 8 C5.01 7.34 4.02 6.68 3 6 C0.88719655 5.36707617 0.88719655 5.36707617 -1 5 C-0.34 4.67 0.32 4.34 1 4 C1 3.34 1 2.68 1 2 C0.34 1.67 -0.32 1.34 -1 1 C-0.67 0.67 -0.34 0.34 0 0 Z " fill="#DEDEDE" transform="translate(148,198)"/>
<path d="M0 0 C5.80380367 2.56447139 9.48352723 5.72529084 13 11 C7.58076081 10.62191355 5.5887497 8.96651283 2 5 C0.68824014 3.97186389 -0.6369893 2.95915568 -2 2 C-1.34 2 -0.68 2 0 2 C0 1.34 0 0.68 0 0 Z " fill="#DAE9ED" transform="translate(106,123)"/>
<path d="M0 0 C0.33 0 0.66 0 1 0 C1 9.9 1 19.8 1 30 C-0.98 29.67 -2.96 29.34 -5 29 C-5 28.34 -5 27.68 -5 27 C-3.35 26.34 -1.7 25.68 0 25 C0 16.75 0 8.5 0 0 Z " fill="#EDF4F5" transform="translate(105,95)"/>
<path d="M0 0 C0.66 0 1.32 0 2 0 C2 0.66 2 1.32 2 2 C2.66 2.33 3.32 2.66 4 3 C3.67 3.66 3.34 4.32 3 5 C2.01 5 1.02 5 0 5 C0 4.34 0 3.68 0 3 C-0.66 3 -1.32 3 -2 3 C-2.33 3.99 -2.66 4.98 -3 6 C-3.78375 5.814375 -4.5675 5.62875 -5.375 5.4375 C-7.97089775 4.74037734 -7.97089775 4.74037734 -10 6 C-10.33 4.35 -10.66 2.7 -11 1 C-7.37 1.33 -3.74 1.66 0 2 C0 1.34 0 0.68 0 0 Z " fill="#979797" transform="translate(105,198)"/>
<path d="M0 0 C0.99 0.495 0.99 0.495 2 1 C1.98428955 1.56509277 1.9685791 2.13018555 1.95239258 2.71240234 C1.89012955 5.26650023 1.85103864 7.82043871 1.8125 10.375 C1.78736328 11.26445313 1.76222656 12.15390625 1.73632812 13.0703125 C1.72666016 13.92109375 1.71699219 14.771875 1.70703125 15.6484375 C1.6913208 16.43395996 1.67561035 17.21948242 1.65942383 18.02880859 C1.77181396 18.67930176 1.8842041 19.32979492 2 20 C2.99 20.66 3.98 21.32 5 22 C4.67 23.32 4.34 24.64 4 26 C2.68 25.67 1.36 25.34 0 25 C0 16.75 0 8.5 0 0 Z " fill="#585659" transform="translate(92,92)"/>
<path d="M0 0 C-0.99 0.66 -1.98 1.32 -3 2 C-3 2.33 -3 2.66 -3 3 C-7.29 3.99 -11.58 4.98 -16 6 C-16 5.01 -16 4.02 -16 3 C-14.08802961 2.29954544 -12.17019565 1.615081 -10.25 0.9375 C-9.18265625 0.55464844 -8.1153125 0.17179687 -7.015625 -0.22265625 C-4.07719958 -0.98010011 -2.77651052 -1.07151741 0 0 Z " fill="#E1E1E1" transform="translate(168,112)"/>
<path d="M0 0 C1.485 0.99 1.485 0.99 3 2 C2.67 2.33 2.34 2.66 2 3 C2.66 3.33 3.32 3.66 4 4 C4.33 3.34 4.66 2.68 5 2 C5.66 2.33 6.32 2.66 7 3 C7.33 2.01 7.66 1.02 8 0 C9 3 9 3 8 5.1875 C6 7 6 7 2.3125 7.25 C1.219375 7.1675 0.12625 7.085 -1 7 C-0.67 4.69 -0.34 2.38 0 0 Z " fill="#F4F4F4" transform="translate(89,201)"/>
<path d="M0 0 C1.65 0.33 3.3 0.66 5 1 C3.44298069 5.67105792 0.91552627 9.08705685 -2 13 C-3.21781214 9.02924635 -2.48540007 6.87854463 -1 3 C-0.67 2.01 -0.34 1.02 0 0 Z " fill="#DCF3FA" transform="translate(106,74)"/>
<path d="M0 0 C1.95903745 0.47627975 3.91721097 0.95611423 5.875 1.4375 C6.96554688 1.70433594 8.05609375 1.97117188 9.1796875 2.24609375 C12 3 12 3 14 4 C14 4.66 14 5.32 14 6 C12.02 6.33 10.04 6.66 8 7 C7.67 5.68 7.34 4.36 7 3 C5.02 3.33 3.04 3.66 1 4 C0.67 2.68 0.34 1.36 0 0 Z " fill="#DEF3FA" transform="translate(97,127)"/>
<path d="M0 0 C-0.33 1.32 -0.66 2.64 -1 4 C-5.62 4 -10.24 4 -15 4 C-14.67 3.34 -14.34 2.68 -14 2 C-9.17574056 0.52819204 -5.07522852 -0.25376143 0 0 Z " fill="#F0F0F0" transform="translate(179,110)"/>
<path d="M0 0 C0.66 0.99 1.32 1.98 2 3 C-1.97110604 8.68772248 -5.95643847 14.3635203 -10 20 C-10 16.6998249 -9.47229985 15.7476985 -7.8125 12.98828125 C-7.36132812 12.23095703 -6.91015625 11.47363281 -6.4453125 10.69335938 C-5.96835938 9.90767578 -5.49140625 9.12199219 -5 8.3125 C-4.52304688 7.51521484 -4.04609375 6.71792969 -3.5546875 5.89648438 C-2.37559607 3.92740169 -1.19053997 1.96217452 0 0 Z " fill="#648293" transform="translate(78,100)"/>
<path d="M0 0 C0.33 0.99 0.66 1.98 1 3 C-0.14453125 5.19140625 -0.14453125 5.19140625 -1.8125 7.5625 C-2.35519531 8.34753906 -2.89789063 9.13257813 -3.45703125 9.94140625 C-5 12 -5 12 -7 14 C-7.36809816 7.49693252 -7.36809816 7.49693252 -5.75 5.3125 C-5.1725 4.879375 -4.595 4.44625 -4 4 C-2.9171875 2.9171875 -2.9171875 2.9171875 -1.8125 1.8125 C-1.214375 1.214375 -0.61625 0.61625 0 0 Z " fill="#E2E3E2" transform="translate(127,120)"/>
<path d="M0 0 C1.21386936 3.64160808 0.6674695 4.33165469 -0.9375 7.6875 C-1.31777344 8.49574219 -1.69804688 9.30398437 -2.08984375 10.13671875 C-2.39019531 10.75160156 -2.69054687 11.36648437 -3 12 C-3.99 12 -4.98 12 -6 12 C-5.54300722 6.97307937 -3.00758252 3.85103739 0 0 Z " fill="#595957" transform="translate(84,101)"/>
<path d="M0 0 C1.13671875 1.75 1.13671875 1.75 2 4 C1.20703125 6 1.20703125 6 -0.1875 8 C-0.65929687 8.6909375 -1.13109375 9.381875 -1.6171875 10.09375 C-2.07351562 10.7228125 -2.52984375 11.351875 -3 12 C-3.8971875 13.2375 -3.8971875 13.2375 -4.8125 14.5 C-5.204375 14.995 -5.59625 15.49 -6 16 C-5.52412884 9.97229862 -2.80277043 5.23321711 0 0 Z " fill="#666666" transform="translate(127,112)"/>
<path d="M0 0 C3.3 0 6.6 0 10 0 C9.67 1.32 9.34 2.64 9 4 C6 4 3 4 0 4 C0 2.68 0 1.36 0 0 Z " fill="#8D8D8D" transform="translate(116,200)"/>
<path d="M0 0 C0.99 0.33 1.98 0.66 3 1 C1.576875 2.0828125 1.576875 2.0828125 0.125 3.1875 C-2.7466223 5.54249866 -3.65505673 7.54157446 -5 11 C-7.125 11.8125 -7.125 11.8125 -9 12 C-7.54718935 6.67302761 -3.91888622 3.63597198 0 0 Z " fill="#737373" transform="translate(132,118)"/>
<path d="M0 0 C1.32 0.66 2.64 1.32 4 2 C1.71296692 3.19725883 -0.57884862 4.38297018 -2.875 5.5625 C-3.52597656 5.90474609 -4.17695313 6.24699219 -4.84765625 6.59960938 C-6.53529857 7.46082891 -8.26579593 8.23686703 -10 9 C-10.66 8.67 -11.32 8.34 -12 8 C-8.04 5.36 -4.08 2.72 0 0 Z " fill="#666666" transform="translate(144,115)"/>
<path d="M0 0 C1 3 1 3 -0.25 6.5625 C-2 10 -2 10 -5 12 C-4.58525633 6.71201818 -3.64775386 3.88309282 0 0 Z " fill="#DFF0F3" transform="translate(115,77)"/>
<path d="M0 0 C0.99 0 1.98 0 3 0 C3 0.66 3 1.32 3 2 C3.99 1.67 4.98 1.34 6 1 C6.66 2.98 7.32 4.96 8 7 C6.35 7 4.7 7 3 7 C2.01 4.69 1.02 2.38 0 0 Z " fill="#5A5A5A" transform="translate(155,73)"/>
<path d="M0 0 C0.77988281 -0.01417969 1.55976562 -0.02835937 2.36328125 -0.04296875 C4.8907668 0.20765587 6.50468031 0.92376228 8.6875 2.1875 C4.42949462 3.60683513 0.45838462 3.91401677 -3.75 2.1875 C-4.265625 1.8575 -4.78125 1.5275 -5.3125 1.1875 C-3.74222683 -0.38277317 -2.16980053 0.01775614 0 0 Z " fill="#D7EDF7" transform="translate(85.3125,124.8125)"/>
<path d="M0 0 C0.66 0.33 1.32 0.66 2 1 C-0.31 4.96 -2.62 8.92 -5 13 C-5.66 12.01 -6.32 11.02 -7 10 C-6.01 9.67 -5.02 9.34 -4 9 C-3.8453125 7.329375 -3.8453125 7.329375 -3.6875 5.625 C-3.460625 4.42875 -3.23375 3.2325 -3 2 C-2.01 1.34 -1.02 0.68 0 0 Z " fill="#D9F2F9" transform="translate(84,87)"/>
<path d="M0 0 C3 2 3 2 3.6875 5.125 C3.790625 6.07375 3.89375 7.0225 4 8 C2.68 8.33 1.36 8.66 0 9 C0 8.34 0 7.68 0 7 C-0.99 6.67 -1.98 6.34 -3 6 C-1.68 5.67 -0.36 5.34 1 5 C0.67 3.35 0.34 1.7 0 0 Z " fill="#4C4C4C" transform="translate(170,101)"/>
<path d="M0 0 C0.928125 0.5259375 0.928125 0.5259375 1.875 1.0625 C2.57625 1.371875 3.2775 1.68125 4 2 C4.66 1.67 5.32 1.34 6 1 C5.67 2.32 5.34 3.64 5 5 C5.66 5.33 6.32 5.66 7 6 C4.33333333 6 1.66666667 6 -1 6 C-0.34 4.68 0.32 3.36 1 2 C0.34 1.67 -0.32 1.34 -1 1 C-0.67 0.67 -0.34 0.34 0 0 Z " fill="#919191" transform="translate(148,198)"/>
<path d="M0 0 C3.3 0.33 6.6 0.66 10 1 C10 1.66 10 2.32 10 3 C6.7 3 3.4 3 0 3 C0 2.01 0 1.02 0 0 Z " fill="#0673C4" transform="translate(75,119)"/>
<path d="M0 0 C5.4611399 0.35233161 5.4611399 0.35233161 8 1 C9.5 3.0625 9.5 3.0625 10 5 C10.66 5 11.32 5 12 5 C11.67 5.66 11.34 6.32 11 7 C10.01 6.67 9.02 6.34 8 6 C8 5.34 8 4.68 8 4 C7.236875 3.71125 6.47375 3.4225 5.6875 3.125 C3 2 3 2 0 0 Z " fill="#D1EDF8" transform="translate(89,81)"/>
<path d="M0 0 C2.64 0 5.28 0 8 0 C7.34 0.66 6.68 1.32 6 2 C5.01 1.67 4.02 1.34 3 1 C3 2.32 3 3.64 3 5 C1.68 5 0.36 5 -1 5 C-0.67 3.35 -0.34 1.7 0 0 Z " fill="#C9C9C9" transform="translate(113,199)"/>
<path d="M0 0 C0.33 2.31 0.66 4.62 1 7 C-0.65 7 -2.3 7 -4 7 C-4 5.02 -4 3.04 -4 1 C-2 0 -2 0 0 0 Z " fill="#C8C8C8" transform="translate(68,198)"/>
<path d="M0 0 C0.99 0.33 1.98 0.66 3 1 C3 1.66 3 2.32 3 3 C0.6875 4.6875 0.6875 4.6875 -2 6 C-2.99 5.67 -3.98 5.34 -5 5 C-3.35 3.35 -1.7 1.7 0 0 Z " fill="#4F4F4F" transform="translate(149,104)"/>
<path d="M0 0 C0.99 0.33 1.98 0.66 3 1 C2.67 2.65 2.34 4.3 2 6 C0.35 6.33 -1.3 6.66 -3 7 C-3.66 5.35 -4.32 3.7 -5 2 C-3.68 2.33 -2.36 2.66 -1 3 C-1 3.66 -1 4.32 -1 5 C-0.34 5 0.32 5 1 5 C0.67 3.35 0.34 1.7 0 0 Z " fill="#C8E5F2" transform="translate(138,80)"/>
<path d="M0 0 C0.66 0 1.32 0 2 0 C2 2.97 2 5.94 2 9 C0.35 8.67 -1.3 8.34 -3 8 C-3 6.68 -3 5.36 -3 4 C-2.01 4 -1.02 4 0 4 C0 2.68 0 1.36 0 0 Z " fill="#4A90BF" transform="translate(119,65)"/>
<path d="M0 0 C2.64 0.33 5.28 0.66 8 1 C5.60490662 3.89932357 3.68754757 4.50168276 0 5 C-0.33 4.01 -0.66 3.02 -1 2 C-0.67 1.34 -0.34 0.68 0 0 Z " fill="#3B7BA5" transform="translate(74,115)"/>
<path d="M0 0 C0.598125 0.20625 1.19625 0.4125 1.8125 0.625 C1.4825 1.615 1.1525 2.605 0.8125 3.625 C0.8125 2.965 0.8125 2.305 0.8125 1.625 C0.1525 1.625 -0.5075 1.625 -1.1875 1.625 C-1.5175 2.945 -1.8475 4.265 -2.1875 5.625 C-3.1775 5.625 -4.1675 5.625 -5.1875 5.625 C-5.1875 4.305 -5.1875 2.985 -5.1875 1.625 C-2.1875 -0.375 -2.1875 -0.375 0 0 Z " fill="#505050" transform="translate(155.1875,66.375)"/>
<path d="M0 0 C0.33 1.32 0.66 2.64 1 4 C-0.28650706 4.69710731 -1.57940665 5.38242876 -2.875 6.0625 C-3.95394531 6.63677734 -3.95394531 6.63677734 -5.0546875 7.22265625 C-5.69664062 7.47917969 -6.33859375 7.73570313 -7 8 C-7.66 7.67 -8.32 7.34 -9 7 C-6.03 4.69 -3.06 2.38 0 0 Z " fill="#626263" transform="translate(137,61)"/>
<path d="M0 0 C0.99 0 1.98 0 3 0 C1.7508258 3.45925163 0.32472205 6.14693203 -2 9 C-2.6875 7.3125 -2.6875 7.3125 -3 5 C-1.75 2.25 -1.75 2.25 0 0 Z " fill="#DBEFF5" transform="translate(75,100)"/>
<path d="M0 0 C2.31 0.66 4.62 1.32 7 2 C6.01 2.99 5.02 3.98 4 5 C1.69 4.34 -0.62 3.68 -3 3 C-2.01 2.01 -1.02 1.02 0 0 Z " fill="#D2E8EE" transform="translate(96,118)"/>
<path d="M0 0 C0.66 0 1.32 0 2 0 C2 0.66 2 1.32 2 2 C3.32 2.33 4.64 2.66 6 3 C2.92382812 3.29296875 2.92382812 3.29296875 -0.15234375 3.5859375 C-0.76207031 3.72257813 -1.37179688 3.85921875 -2 4 C-2.33 4.66 -2.66 5.32 -3 6 C-3 5.34 -3 4.68 -3 4 C-3.66 3.67 -4.32 3.34 -5 3 C-4.360625 2.87625 -3.72125 2.7525 -3.0625 2.625 C-2.0415625 2.315625 -2.0415625 2.315625 -1 2 C-0.67 1.34 -0.34 0.68 0 0 Z " fill="#D5D5D5" transform="translate(103,201)"/>
<path d="M0 0 C0.33 0 0.66 0 1 0 C1.36923077 4.55384615 1.36923077 4.55384615 -0.5 6.8125 C-0.995 7.204375 -1.49 7.59625 -2 8 C-2.66 7.67 -3.32 7.34 -4 7 C-2.92598892 4.08482708 -2.22189824 2.22189824 0 0 Z " fill="#505050" transform="translate(131,107)"/>
<path d="M0 0 C0.33 0.66 0.66 1.32 1 2 C2.65 2 4.3 2 6 2 C6 3.32 6 4.64 6 6 C5.01 6 4.02 6 3 6 C3 5.01 3 4.02 3 3 C2.34 3 1.68 3 1 3 C0.67 3.99 0.34 4.98 0 6 C0 4.02 0 2.04 0 0 Z " fill="#8E8E8E" transform="translate(68,198)"/>
<path d="M0 0 C0.99 0 1.98 0 3 0 C3 0.66 3 1.32 3 2 C3.99 2 4.98 2 6 2 C6.33 2.99 6.66 3.98 7 5 C5.02 5 3.04 5 1 5 C0.67 3.35 0.34 1.7 0 0 Z " fill="#D0D0D0" transform="translate(143,198)"/>
<path d="M0 0 C0.66 0.33 1.32 0.66 2 1 C0.68 3.31 -0.64 5.62 -2 8 C-2.66 7.67 -3.32 7.34 -4 7 C-3.43628586 3.73045798 -2.50037734 2.17424117 0 0 Z " fill="#4A4A4A" transform="translate(142,96)"/>
<path d="M0 0 C0.66 0 1.32 0 2 0 C2.28875 0.61875 2.5775 1.2375 2.875 1.875 C3.93720042 4.13325765 3.93720042 4.13325765 6 6 C4.35 6.33 2.7 6.66 1 7 C0.67 4.69 0.34 2.38 0 0 Z " fill="#557D99" transform="translate(127,84)"/>
<path d="M0 0 C5.75 1.75 5.75 1.75 8 4 C4.7 4 1.4 4 -2 4 C-1.34 2.68 -0.68 1.36 0 0 Z " fill="#C2EBF8" transform="translate(90,87)"/>
<path d="M0 0 C-0.33 0.99 -0.66 1.98 -1 3 C-3.0625 3.6875 -3.0625 3.6875 -5 4 C-4.67 3.34 -4.34 2.68 -4 2 C-4.99 2 -5.98 2 -7 2 C-7 1.34 -7 0.68 -7 0 C-3.86650268 -1.04449911 -3.01031744 -0.93423645 0 0 Z " fill="#F3F3F3" transform="translate(168,204)"/>
<path d="M0 0 C1.32 0.99 2.64 1.98 4 3 C1.29120665 4.35439668 -1.00933268 4.06501451 -4 4 C-4 3.34 -4 2.68 -4 2 C-2.68 1.34 -1.36 0.68 0 0 Z " fill="#555555" transform="translate(150,112)"/>
<path d="M0 0 C-0.66 1.65 -1.32 3.3 -2 5 C-3.32 5 -4.64 5 -6 5 C-4.87312259 1.61936778 -3.78825335 0 0 0 Z " fill="#595959" transform="translate(157,100)"/>
<path d="M0 0 C0.66 0.33 1.32 0.66 2 1 C0.75023244 4.65316671 0.32901247 5.78065836 -3 8 C-2.45276317 4.62537285 -1.9451 2.91765 0 0 Z " fill="#416D8B" transform="translate(82,94)"/>
<path d="M0 0 C0.99 0.99 1.98 1.98 3 3 C2.01 4.32 1.02 5.64 0 7 C-0.99 6.67 -1.98 6.34 -3 6 C-2.01 4.02 -1.02 2.04 0 0 Z " fill="#36729B" transform="translate(85,88)"/>
<path d="M0 0 C6.875 3.75 6.875 3.75 8 6 C5.03 5.01 2.06 4.02 -1 3 C-0.67 2.01 -0.34 1.02 0 0 Z " fill="#436B86" transform="translate(105,126)"/>
<path d="M0 0 C1.32 0.66 2.64 1.32 4 2 C3.34 3.32 2.68 4.64 2 6 C1.01 5.01 0.02 4.02 -1 3 C-0.67 2.01 -0.34 1.02 0 0 Z " fill="#F8F8F8" transform="translate(144,101)"/>
<path d="M0 0 C-1.24546405 3.73639216 -2.63404953 4.18756513 -6 6 C-6.33 5.01 -6.66 4.02 -7 3 C-2.25 0 -2.25 0 0 0 Z " fill="#EDEBE9" transform="translate(146,92)"/>
<path d="M0 0 C1.98 0.99 1.98 0.99 4 2 C3.67 3.32 3.34 4.64 3 6 C2.01 5.67 1.02 5.34 0 5 C0 3.35 0 1.7 0 0 Z " fill="#EBEBEB" transform="translate(108,199)"/>
<path d="M0 0 C3 1 3 1 4 3 C1.69 3.33 -0.62 3.66 -3 4 C-2.67 3.01 -2.34 2.02 -2 1 C-1.34 0.67 -0.68 0.34 0 0 Z " fill="#4B4B4B" transform="translate(135,124)"/>
<path d="M0 0 C6.625 0.75 6.625 0.75 10 3 C7.36 3 4.72 3 2 3 C2 2.34 2 1.68 2 1 C1.34 0.67 0.68 0.34 0 0 Z " fill="#2A719F" transform="translate(86,119)"/>
<path d="M0 0 C1.65 0 3.3 0 5 0 C5.66 1.32 6.32 2.64 7 4 C3.89448334 4 2.64738916 3.4606285 0 2 C0 1.34 0 0.68 0 0 Z " fill="#606060" transform="translate(169,100)"/>
<path d="M0 0 C0.99 0.33 1.98 0.66 3 1 C3.6875 3.0625 3.6875 3.0625 4 5 C2.68 4.67 1.36 4.34 0 4 C0 2.68 0 1.36 0 0 Z " fill="#BEEAF3" transform="translate(130,84)"/>
<path d="M0 0 C1.65 0 3.3 0 5 0 C5 0.66 5 1.32 5 2 C2.5 3.625 2.5 3.625 0 5 C-0.33 4.01 -0.66 3.02 -1 2 C-0.67 1.34 -0.34 0.68 0 0 Z " fill="#1F6DA2" transform="translate(87,85)"/>
<path d="M0 0 C1.9375 0.3125 1.9375 0.3125 4 1 C4.33 1.99 4.66 2.98 5 4 C2.03 3.505 2.03 3.505 -1 3 C-0.67 2.01 -0.34 1.02 0 0 Z " fill="#306D97" transform="translate(89,82)"/>
</svg>
