<?xml version="1.0" encoding="UTF-8" standalone="no"?>
<svg
   version="1.1"
   width="668.74811"
   height="243.562"
   id="svg15"
   viewBox="0 0 668.74811 243.562"
   sodipodi:docname="5b5ce4854eed5701046a5faabf2e7c4d.cdr"
   xmlns:inkscape="http://www.inkscape.org/namespaces/inkscape"
   xmlns:sodipodi="http://sodipodi.sourceforge.net/DTD/sodipodi-0.dtd"
   xmlns="http://www.w3.org/2000/svg"
   xmlns:svg="http://www.w3.org/2000/svg">
  <defs
     id="defs19" />
  <sodipodi:namedview
     id="namedview17"
     pagecolor="#ffffff"
     bordercolor="#666666"
     borderopacity="1.0"
     inkscape:pageshadow="2"
     inkscape:pageopacity="0.0"
     inkscape:pagecheckerboard="0" />
  <g
     id="Layer1000"
     transform="translate(-61.626,-184.219)">
    <path
       d="m 256.5177,399.8088 c -0.1829,-0.5767 -0.4782,-1.1256 -0.8584,-1.5898 -0.3939,-0.4782 -0.8725,-0.8725 -1.407,-1.1538 -0.4923,-0.3094 -1.0413,-0.5204 -1.618,-0.6334 -0.436,-0.1125 -0.8865,-0.1969 -1.3366,-0.2391 -0.3939,-0.0281 -0.8022,-0.0281 -1.196,0 h -4.137 c -0.2532,0.0141 -0.4923,0.0985 -0.6897,0.2532 -0.2391,0.211 -0.3657,0.5345 -0.3235,0.8584 v 17.8275 c -0.014,0.0844 -0.014,0.1547 0,0.2391 0.0704,0.0422 0.1407,0.0844 0.2251,0.1125 0.1125,0.0563 0.2532,0.0844 0.3798,0.0985 0.1828,0 0.3797,0 0.6333,0 0.2536,0 0.4361,0 0.5908,0 0.1406,-0.0141 0.2813,-0.0422 0.4079,-0.0985 0.0703,-0.0281 0.1407,-0.0703 0.1969,-0.1125 0.0563,-0.0703 0.0844,-0.1547 0.0844,-0.2391 v -6.965 h 2.1814 c 1.0413,0.0281 2.0826,-0.1266 3.0676,-0.4361 0.8022,-0.2672 1.5477,-0.7037 2.181,-1.2663 0.6053,-0.5626 1.0976,-1.2523 1.407,-2.0122 0.3376,-0.8303 0.5064,-1.7164 0.4923,-2.603 0.0141,-0.6756 -0.0985,-1.3507 -0.3235,-1.9841 m -2.6733,3.799 c -0.1547,0.4782 -0.4079,0.9287 -0.774,1.2804 -0.3658,0.3657 -0.8022,0.6474 -1.2945,0.8303 -0.6193,0.211 -1.2663,0.3094 -1.9138,0.2954 h -2.3072 v -7.7527 l 2.3498,-5e-4 c 0.4642,0 0.9429,0.0422 1.407,0.0985 0.4642,0.0844 0.9147,0.2532 1.3226,0.5064 0.4642,0.2813 0.8444,0.6755 1.0835,1.1678 0.3235,0.6053 0.4782,1.2804 0.4501,1.9701 0,0.5485 -0.0985,1.0975 -0.2954,1.6039 z m 21.4577,3.6443 c 0,-0.8303 -0.0985,-1.6602 -0.3095,-2.4624 -0.225,-0.7459 -0.5908,-1.421 -1.0835,-2.0263 -0.4923,-0.6052 -1.1116,-1.0834 -1.8153,-1.407 -0.8443,-0.3657 -1.7586,-0.5485 -2.6874,-0.5204 -0.9146,-0.014 -1.8153,0.1547 -2.6592,0.5204 -0.7881,0.3376 -1.4773,0.8303 -2.0404,1.4774 -0.5907,0.6755 -1.0412,1.4773 -1.2944,2.3498 -0.2954,0.999 -0.4501,2.0544 -0.4361,3.0957 -0.014,1.0834 0.1266,2.181 0.4361,3.2223 0.2391,0.8443 0.6896,1.6179 1.2804,2.2654 0.5767,0.6333 1.2804,1.1116 2.0825,1.4069 0.9428,0.3095 1.9279,0.4642 2.9125,0.4361 0.5907,0 1.1819,-0.0422 1.7727,-0.1266 0.5626,-0.0985 1.0694,-0.2251 1.4913,-0.3095 0.3517,-0.0984 0.7037,-0.2391 1.0413,-0.3938 0.1829,-0.0563 0.3517,-0.1547 0.4923,-0.2813 0.0703,0 0.0844,-0.0985 0.1266,-0.1547 0.0281,-0.0704 0.0563,-0.1407 0.0703,-0.211 0,-0.0703 0,-0.1407 0,-0.2391 0.0141,-0.1126 0.0141,-0.2391 0,-0.3517 0.0141,-0.1406 0.0141,-0.2954 0,-0.436 0.0141,-0.0985 0.0141,-0.211 0,-0.3095 -0.0281,-0.0562 -0.0703,-0.1125 -0.1266,-0.1547 -0.0562,-0.014 -0.1265,-0.014 -0.1828,0 -0.1829,0.0141 -0.3657,0.0563 -0.5345,0.1407 -0.2532,0.0984 -0.5486,0.2391 -0.9147,0.3657 -0.422,0.1406 -0.8584,0.2532 -1.2945,0.3516 -0.5626,0.1126 -1.1256,0.1688 -1.7023,0.1688 -0.6897,0 -1.3929,-0.1125 -2.0404,-0.3516 -0.5485,-0.211 -1.0272,-0.5486 -1.407,-0.985 -0.3516,-0.4642 -0.6052,-0.9851 -0.7459,-1.5477 -0.1547,-0.6615 -0.225,-1.3366 -0.225,-2.0122 l 8.8366,-8e-4 c 0.2532,0 0.4923,-0.0844 0.6755,-0.2532 0.2251,-0.211 0.3236,-0.5204 0.2814,-0.8162 z m -9.8494,-0.2814 c 0.0282,-0.5345 0.1266,-1.0694 0.3095,-1.5757 0.1547,-0.4783 0.3938,-0.9288 0.7178,-1.3226 0.3094,-0.3798 0.7037,-0.6897 1.1397,-0.9006 0.5064,-0.2532 1.0553,-0.3798 1.618,-0.3658 1.0272,-0.0562 2.0122,0.3517 2.6873,1.1257 0.6334,0.8866 0.9288,1.956 0.8444,3.0395 z m 25.327,-5.0657 c 0.0141,-0.0984 0.0141,-0.211 0,-0.3094 -0.014,-0.0563 -0.014,-0.1126 0,-0.1688 -0.0281,-0.0563 -0.0703,-0.1125 -0.1266,-0.1547 -0.0844,-0.0563 -0.1969,-0.1126 -0.2953,-0.1407 -0.1548,-0.0563 -0.3236,-0.0844 -0.4923,-0.1125 -0.1688,-0.0563 -0.3376,-0.0844 -0.5064,-0.0985 H 288.88 c -0.2954,0 -0.5907,0.0422 -0.8725,0.1266 -0.3094,0.0703 -0.5907,0.211 -0.8443,0.3938 -0.3376,0.2251 -0.6475,0.4923 -0.9147,0.8022 -0.3798,0.4079 -0.7318,0.8444 -1.0413,1.3085 V 401.68 c 0.0141,-0.0703 0.0141,-0.1266 0,-0.1969 -0.0281,-0.0704 -0.0984,-0.1266 -0.1688,-0.1547 -0.0984,-0.0563 -0.211,-0.0985 -0.3235,-0.0985 h -1.0971 c -0.1266,0 -0.2391,0.0422 -0.3517,0.0985 -0.0703,0.0281 -0.1406,0.0843 -0.1687,0.1547 -0.0141,0.0703 -0.0141,0.1266 0,0.1969 v 13.4514 c -0.0141,0.0703 -0.0141,0.1406 0,0.211 l 0.1828,0.1406 c 0.1266,0.0141 0.2673,0.0141 0.3939,0 0.1969,0.0141 0.4079,0.0141 0.6052,0 0.1969,0.0141 0.3938,0.0141 0.5908,0 0.1265,0.0282 0.2531,0.0282 0.3797,0 l 0.1969,-0.1406 c 0.0141,-0.0704 0.0141,-0.1407 0,-0.211 v -8.8503 c 0.3658,-0.5626 0.6756,-1.0131 0.971,-1.4069 0.2391,-0.3376 0.5064,-0.6475 0.8162,-0.9147 0.2251,-0.1969 0.4783,-0.3657 0.76,-0.4923 0.2391,-0.0985 0.4782,-0.1407 0.7318,-0.1407 0.1969,-0.0281 0.3939,-0.0281 0.5908,0 l 0.4501,0.1125 0.4219,0.1548 c 0.0985,0.014 0.197,0.014 0.2954,0 0.0563,0.0281 0.1126,0.0281 0.1688,0 0.0563,-0.0563 0.0844,-0.1266 0.0985,-0.197 0.014,-0.1265 0.014,-0.2391 0,-0.3657 0,-0.1406 0,-0.3235 0,-0.5485 z m 14.3661,7.95 c -0.1829,-0.3938 -0.436,-0.7599 -0.7459,-1.0694 -0.3376,-0.3094 -0.7037,-0.5626 -1.0975,-0.7881 -0.408,-0.2109 -0.8303,-0.3797 -1.2664,-0.5345 -0.4079,-0.1828 -0.8162,-0.3375 -1.2382,-0.4923 -0.3797,-0.1547 -0.7459,-0.3375 -1.0834,-0.5485 -0.2954,-0.1829 -0.5486,-0.4079 -0.76,-0.6897 -0.2251,-0.2813 -0.3517,-0.6333 -0.3235,-0.985 -0.0141,-0.2672 0.0562,-0.5485 0.1828,-0.7881 0.0985,-0.225 0.2532,-0.436 0.4361,-0.6052 0.2391,-0.1829 0.5063,-0.3376 0.7881,-0.422 0.3657,-0.0844 0.7318,-0.1266 1.0975,-0.1266 0.422,0 0.8444,0.0422 1.2523,0.1548 0.3235,0.0984 0.6333,0.225 0.9428,0.3657 0.225,0.0984 0.4501,0.2109 0.6615,0.3516 0.1125,0.0703 0.2391,0.1266 0.3798,0.1688 0.0562,0 0.1125,-0.0281 0.1547,-0.0703 0.0703,-0.0282 0.1266,-0.0985 0.1547,-0.1688 0,-0.0844 0,-0.1829 0,-0.3235 v -0.8303 c 0,-0.0844 0,-0.1829 0,-0.2673 0,-0.0703 0,-0.1406 0,-0.1969 -0.0563,-0.0844 -0.1266,-0.1547 -0.211,-0.1969 -0.1406,-0.1266 -0.3094,-0.2251 -0.4782,-0.2954 -0.2251,-0.1266 -0.4642,-0.211 -0.7178,-0.2813 -0.3235,-0.0985 -0.6474,-0.1829 -0.9709,-0.2251 -0.3517,-0.0703 -0.7178,-0.0984 -1.0835,-0.0984 -0.7318,0 -1.4492,0.1125 -2.1388,0.3376 -0.5626,0.1828 -1.0694,0.4782 -1.5055,0.8724 -0.4079,0.3376 -0.7177,0.7741 -0.9146,1.2664 -0.197,0.4782 -0.3095,0.985 -0.3095,1.5054 -0.0281,0.5345 0.0703,1.0554 0.2813,1.5477 0.1969,0.4079 0.4501,0.7881 0.76,1.1116 0.3235,0.2953 0.6896,0.5626 1.0694,0.774 0.4079,0.211 0.8443,0.4079 1.2663,0.5767 l 1.2242,0.4923 c 0.3657,0.1547 0.7177,0.3235 1.0553,0.5064 0.2954,0.1969 0.5626,0.436 0.774,0.7177 0.211,0.2673 0.3235,0.6193 0.2954,0.9569 0,0.3235 -0.0703,0.6474 -0.1969,0.9428 -0.1407,0.2673 -0.3376,0.4923 -0.5767,0.6615 -0.2673,0.1829 -0.5626,0.3235 -0.8725,0.4079 -0.3798,0.0844 -0.76,0.1266 -1.1397,0.1266 -0.5064,0.0141 -0.9991,-0.0562 -1.4774,-0.211 -0.3797,-0.1125 -0.7458,-0.2531 -1.0975,-0.4219 -0.3376,-0.1688 -0.5767,-0.3235 -0.8022,-0.4361 -0.1406,-0.1266 -0.3094,-0.1969 -0.4923,-0.225 -0.0703,0 -0.1406,0.0281 -0.1828,0.0703 0,0 -0.0844,0.0844 -0.1266,0.1688 -0.0141,0.0985 -0.0141,0.211 0,0.3094 -0.0281,0.1548 -0.0281,0.3095 0,0.4642 0,0.2532 0.0281,0.5064 0.0703,0.7459 0.0282,0.1688 0.1126,0.3095 0.2391,0.422 0.1548,0.1266 0.3376,0.2391 0.5205,0.3376 0.2813,0.1406 0.5767,0.2531 0.8865,0.3375 0.3657,0.1407 0.7459,0.2391 1.1398,0.2954 0.4641,0.0844 0.9287,0.1266 1.407,0.1125 0.7177,0 1.4351,-0.0984 2.1388,-0.2813 0.6052,-0.1688 1.1678,-0.4501 1.6601,-0.8443 0.4501,-0.3657 0.8163,-0.8163 1.0694,-1.3367 0.2673,-0.5767 0.3939,-1.2101 0.3798,-1.8434 0.0141,-0.5205 -0.0844,-1.0272 -0.2954,-1.5055 m 19.8538,-4.7554 c -0.2532,-0.8444 -0.6756,-1.618 -1.2382,-2.2936 -0.5626,-0.6193 -1.2663,-1.0975 -2.0403,-1.407 -0.9007,-0.3375 -1.8575,-0.5063 -2.814,-0.4923 -1.0272,-0.0281 -2.0544,0.1688 -3.0113,0.5486 -0.8162,0.3657 -1.5477,0.8866 -2.1529,1.5477 -0.5626,0.7037 -0.9991,1.5054 -1.2663,2.3779 -0.2954,0.985 -0.4361,2.0122 -0.4361,3.0394 -0.014,1.0272 0.1407,2.0544 0.422,3.0535 0.2532,0.8444 0.6615,1.618 1.2241,2.2936 0.5627,0.6193 1.2664,1.0975 2.0404,1.4069 0.9006,0.3236 1.8575,0.4783 2.814,0.4783 1.0272,0.014 2.0544,-0.1688 3.0113,-0.5486 0.8162,-0.3657 1.5476,-0.9006 2.1247,-1.5758 0.5767,-0.7037 1.0132,-1.5054 1.2804,-2.3779 0.3095,-0.985 0.4501,-1.9981 0.436,-3.0254 0.0141,-1.0272 -0.1265,-2.0544 -0.3938,-3.0253 z m -2.4061,5.3329 c -0.1265,0.5908 -0.3797,1.1538 -0.7459,1.6462 -0.3375,0.4782 -0.788,0.8584 -1.3085,1.1116 -0.5907,0.2672 -1.2241,0.4079 -1.8715,0.3938 -0.6897,0.0281 -1.3789,-0.1266 -1.9982,-0.436 -0.5064,-0.2814 -0.9428,-0.6615 -1.2663,-1.1398 -0.3235,-0.5204 -0.5486,-1.0975 -0.6615,-1.7023 -0.1407,-0.6897 -0.211,-1.3789 -0.211,-2.0826 -0.0141,-0.7037 0.0703,-1.421 0.225,-2.1107 0.1688,-0.5907 0.422,-1.1679 0.7741,-1.6742 0.3375,-0.4783 0.788,-0.8584 1.3085,-1.1116 0.5907,-0.2673 1.2382,-0.3939 1.8856,-0.3798 0.6896,-0.0141 1.3648,0.1266 1.9841,0.4079 0.5204,0.2813 0.9569,0.6756 1.2804,1.1679 0.3094,0.5204 0.5345,1.0975 0.6474,1.6883 0.1407,0.6896 0.211,1.3788 0.211,2.0825 0.0141,0.7174 -0.0703,1.4351 -0.2532,2.1388 z m 21.9359,-3.6306 c 0.0282,-0.8303 -0.0703,-1.6461 -0.2672,-2.4482 -0.1266,-0.6475 -0.4079,-1.2664 -0.8022,-1.8013 -0.3657,-0.5063 -0.8443,-0.9287 -1.4069,-1.2241 -0.7178,-0.3094 -1.4914,-0.4642 -2.2655,-0.4501 -0.8021,0 -1.5898,0.211 -2.2794,0.6052 -0.8585,0.4642 -1.6321,1.0976 -2.2514,1.8435 v -1.7024 c 0.0141,-0.0703 0.0141,-0.1266 0,-0.1969 -0.0281,-0.0844 -0.0984,-0.1407 -0.1828,-0.1547 -0.0985,-0.0704 -0.211,-0.0985 -0.3235,-0.0985 l -1.0835,-4e-4 c -0.1125,0 -0.2391,0.0422 -0.3376,0.0985 -0.0844,0.0281 -0.1547,0.0843 -0.1969,0.1547 -0.0141,0.0703 -0.0141,0.1266 0,0.1969 v 13.4514 c -0.0141,0.0703 -0.0141,0.1406 0,0.211 0.0563,0.0562 0.1406,0.0984 0.211,0.1406 0.1266,0.0282 0.2391,0.0282 0.3657,0 0.1969,0.0141 0.3938,0.0141 0.5907,0 0.2532,0 0.4501,0 0.6194,0 0.1265,0.0141 0.2391,0.0141 0.3657,0 l 0.1828,-0.1406 c 0.0563,-0.0563 0.0844,-0.1266 0.0844,-0.211 v -9.4133 c 0.5486,-0.7178 1.196,-1.3648 1.9138,-1.9138 0.5485,-0.4079 1.196,-0.6333 1.8715,-0.6615 0.4361,-0.014 0.8585,0.0704 1.2523,0.2532 0.3516,0.1829 0.6474,0.4642 0.8725,0.7881 0.2391,0.3798 0.4079,0.7881 0.5345,1.2101 0.1266,0.6052 0.1828,1.2382 0.1688,1.8575 v 7.8797 c -0.0141,0.0703 -0.0141,0.1406 0,0.211 l 0.1969,0.1406 c 0.1266,0.0141 0.2532,0.0141 0.3798,0 0.1688,0 0.3516,0 0.6052,0 0.2536,0 0.4361,0 0.5908,0 0.1266,0.0282 0.2391,0.0282 0.3657,0 0.0703,-0.0422 0.1406,-0.0844 0.211,-0.1406 0.014,-0.0704 0.014,-0.1407 0,-0.211 z m 18.5594,-0.858 c 0.014,-0.7459 -0.0844,-1.4914 -0.2954,-2.2091 -0.1548,-0.5908 -0.4642,-1.1257 -0.9006,-1.5617 -0.4501,-0.4501 -1.0132,-0.7741 -1.6321,-0.9569 -0.8021,-0.2391 -1.632,-0.3517 -2.4623,-0.3376 -0.5204,0 -1.0272,0.0563 -1.5336,0.1547 -0.4782,0.0844 -0.9428,0.197 -1.407,0.3376 -0.3798,0.1407 -0.7599,0.2954 -1.1256,0.4782 -0.2532,0.1266 -0.4783,0.2814 -0.6897,0.4783 -0.1266,0.0984 -0.225,0.225 -0.2672,0.3798 -0.0282,0.1969 -0.0282,0.4079 0,0.6052 0,0.1547 0,0.2813 0,0.4079 l 0.0984,0.3094 c 0.0704,0.0704 0.1126,0.1407 0.1829,0.1688 0.0562,0.0422 0.1266,0.0704 0.1969,0.0704 0.1969,-0.0282 0.3798,-0.1126 0.5486,-0.2251 0.2953,-0.1688 0.5907,-0.3235 0.9006,-0.4642 0.422,-0.1828 0.8584,-0.3516 1.2944,-0.4923 0.5205,-0.1406 1.0554,-0.225 1.604,-0.2109 0.4782,-0.0141 0.9568,0.0562 1.4069,0.2109 0.3657,0.1126 0.7037,0.3095 0.9569,0.5908 0.2532,0.2813 0.4361,0.6334 0.5345,0.9991 0.1125,0.4642 0.1688,0.9287 0.1688,1.407 v 1.0412 l -1.8571,5e-4 c -0.9428,-0.0141 -1.8856,0.0844 -2.814,0.2813 -0.7599,0.1406 -1.4773,0.4219 -2.1388,0.8303 -0.5907,0.3375 -1.0694,0.8162 -1.407,1.407 -0.3094,0.6052 -0.4641,1.2803 -0.4501,1.9559 -0.014,0.6053 0.0985,1.196 0.3236,1.7586 0.225,0.4783 0.5345,0.9147 0.9428,1.2664 0.4079,0.3657 0.8865,0.6474 1.407,0.8162 0.6333,0.1688 1.2804,0.2672 1.9419,0.2672 0.788,0 1.5757,-0.1687 2.2794,-0.5204 0.7459,-0.3376 1.407,-0.8162 1.956,-1.407 v 1.407 c -0.0141,0.1125 0.0281,0.211 0.1125,0.2813 0.0985,0.0704 0.211,0.1126 0.3235,0.1407 0.1548,0 0.3798,0 0.6334,0 0.2536,0 0.4642,0 0.6052,0 0.1266,-0.0281 0.2392,-0.0703 0.3376,-0.1407 0.0703,-0.0703 0.1125,-0.1547 0.1125,-0.2532 z m -2.4342,5.769 c -0.5064,0.5908 -1.0976,1.0976 -1.7446,1.5196 -0.5345,0.3375 -1.1679,0.5204 -1.8012,0.5063 -0.6756,0.0422 -1.3508,-0.1969 -1.8575,-0.6474 -0.4361,-0.4361 -0.6756,-1.0272 -0.6475,-1.6461 -0.0141,-0.3798 0.0563,-0.76 0.2251,-1.0976 0.1547,-0.3235 0.4079,-0.6052 0.7177,-0.7881 0.3798,-0.2531 0.8022,-0.4219 1.2523,-0.4923 0.5626,-0.1406 1.1538,-0.2109 1.7305,-0.1969 h 2.1252 z m 13.381,-16.6736 c 0.0281,-0.0704 0.0281,-0.1266 0,-0.1969 -0.0422,-0.0844 -0.1125,-0.1407 -0.1969,-0.1688 -0.1688,-0.0563 -0.3517,-0.0844 -0.5345,-0.0844 l -0.6193,-4e-4 c -0.1969,-0.0141 -0.4079,-0.0141 -0.6053,0 -0.1265,0.014 -0.2531,0.0422 -0.3657,0.0843 -0.0844,0.0282 -0.1547,0.0985 -0.1969,0.1688 -0.0141,0.0704 -0.0141,0.1266 0,0.197 v 19.9662 c -0.0141,0.0704 -0.0141,0.1407 0,0.211 l 0.1969,0.1407 c 0.1266,0.0141 0.2392,0.0141 0.3657,0 0.1688,0 0.3658,0 0.6053,0 0.211,0.0141 0.4079,0.0141 0.6193,0 0.1266,0.0141 0.2391,0.0141 0.3657,0 l 0.1969,-0.1407 c 0.0141,-0.0703 0.0141,-0.1406 0,-0.211 z m 18.8261,16.8565 c 0.1266,0.4642 0.3376,0.9147 0.5908,1.3367 0.2673,0.3938 0.5908,0.7599 0.971,1.0553 0.3938,0.3094 0.8162,0.5626 1.2803,0.76 0.4923,0.2109 1.0132,0.3797 1.5477,0.4641 0.5908,0.1266 1.196,0.1829 1.8012,0.1688 0.6193,0.0141 1.2382,-0.0422 1.8435,-0.1688 0.5626,-0.0984 1.1256,-0.2672 1.6461,-0.4923 0.4923,-0.1969 0.9569,-0.436 1.407,-0.7177 0.4501,-0.2954 0.9006,-0.6053 1.3225,-0.9429 0.5627,0.4501 1.0695,0.8303 1.4774,1.1257 0.4079,0.2954 0.7881,0.5345 1.1116,0.7318 0.3235,0.1974 0.6193,0.2673 0.8303,0.3517 0.2109,0.0703 0.436,0.0984 0.6615,0.0984 0.2109,0 0.4219,-0.0281 0.6333,-0.0843 0.1126,0 0.2251,-0.0422 0.3235,-0.1126 0.0563,-0.0422 0.0985,-0.1125 0.1266,-0.1828 0,-0.1126 0,-0.2251 0,-0.3376 0,-0.1407 0,-0.3657 0,-0.5908 0.0282,-0.1828 0.0282,-0.3657 0,-0.5485 0.0141,-0.1407 -0.0844,-0.2813 -0.225,-0.2954 -0.0281,0 -0.0563,0 -0.0985,0 l -0.2954,-8e-4 c -0.1265,-0.0141 -0.2672,-0.0563 -0.3797,-0.1126 -0.211,-0.0703 -0.4079,-0.1828 -0.5908,-0.3094 l -0.8443,-0.5626 -1.182,-0.9007 c 0.3095,-0.4079 0.5908,-0.8443 0.8162,-1.3085 0.2532,-0.4782 0.4642,-0.9709 0.6334,-1.4773 0.1407,-0.5064 0.2954,-1.0413 0.3939,-1.5758 0.0844,-0.5345 0.1265,-1.0834 0.1265,-1.632 v -0.3798 c 0.0282,-0.0984 0.0282,-0.211 0,-0.3094 -0.0421,-0.0844 -0.1125,-0.1407 -0.2109,-0.1547 -0.1266,-0.0282 -0.2392,-0.0282 -0.3657,0 l -0.5776,-9e-4 c -0.1969,-0.014 -0.3938,-0.014 -0.5907,0 -0.1266,0.0141 -0.2391,0.0422 -0.3517,0.0844 -0.0703,0 -0.1547,0.1125 -0.1688,0.1829 -0.0422,0.0703 -0.0703,0.1547 -0.0703,0.2391 v 0.5486 c 0,0.4079 -0.0422,0.8162 -0.0984,1.21 -0.0563,0.4079 -0.1407,0.8022 -0.2673,1.182 -0.1125,0.3657 -0.2532,0.7318 -0.422,1.0834 -0.1406,0.3376 -0.3235,0.6475 -0.5485,0.9288 -0.422,-0.3939 -0.8725,-0.8303 -1.3086,-1.2663 -0.436,-0.4361 -0.9006,-0.8725 -1.3366,-1.3086 l -1.2382,-1.3366 c -0.3939,-0.4642 -0.774,-0.8725 -1.1116,-1.2945 0.8162,-0.4079 1.6039,-0.8865 2.3498,-1.407 0.5907,-0.4079 1.1397,-0.8865 1.632,-1.407 0.3798,-0.4079 0.6897,-0.8865 0.9006,-1.4069 0.1829,-0.5205 0.2814,-1.0695 0.2814,-1.618 0,-0.5627 -0.1126,-1.1257 -0.3376,-1.6461 -0.1969,-0.4923 -0.5345,-0.9288 -0.9569,-1.2523 -0.4642,-0.3798 -0.985,-0.6474 -1.5617,-0.8162 -0.7459,-0.1969 -1.5195,-0.2954 -2.2936,-0.2813 -0.8865,-0.0141 -1.7867,0.1125 -2.6311,0.3797 -0.6615,0.2251 -1.2663,0.5767 -1.7867,1.0413 -0.4361,0.422 -0.7881,0.9288 -0.9991,1.4914 -0.1969,0.5626 -0.3095,1.1538 -0.3095,1.7586 0,0.3517 0.0563,0.7037 0.1407,1.0413 0.0703,0.3798 0.1969,0.76 0.3798,1.0976 0.211,0.4219 0.4501,0.8162 0.7037,1.21 0.2813,0.4361 0.6052,0.9288 1.0131,1.407 -0.6474,0.3938 -1.2804,0.8444 -1.8715,1.3226 -0.4642,0.3938 -0.8725,0.8444 -1.2242,1.3367 -0.3094,0.436 -0.5485,0.9006 -0.7037,1.4069 -0.1688,0.5064 -0.2391,1.0413 -0.225,1.5758 -0.0282,0.5345 0.0562,1.0694 0.225,1.5758 m 4.3749,-13.0431 c 0.0984,-0.2954 0.2672,-0.5626 0.4782,-0.774 0.2673,-0.2673 0.5767,-0.4923 0.9288,-0.6334 0.4219,-0.1406 0.8584,-0.211 1.3085,-0.211 0.422,0 0.8584,0.0563 1.2663,0.1829 0.3235,0.0985 0.6193,0.2672 0.8725,0.4923 0.2251,0.1828 0.3938,0.422 0.4923,0.6896 0.0985,0.2673 0.1547,0.5486 0.1547,0.8303 0,0.3517 -0.0703,0.7037 -0.225,1.0132 -0.1547,0.3516 -0.3657,0.6896 -0.6334,0.9709 -0.3657,0.3657 -0.76,0.6896 -1.1819,0.985 -0.4923,0.3517 -1.1116,0.7178 -1.8153,1.1257 -0.3235,-0.422 -0.5767,-0.8162 -0.8022,-1.1679 -0.2255,-0.3516 -0.4079,-0.6615 -0.5767,-0.985 -0.1406,-0.2813 -0.2532,-0.5767 -0.3376,-0.8725 -0.0703,-0.2672 -0.1125,-0.5345 -0.1125,-0.8162 0.0145,-0.2813 0.0848,-0.5626 0.1833,-0.8299 z m -1.7727,10.3276 c 0.0984,-0.3376 0.2532,-0.6615 0.4501,-0.9569 0.225,-0.3517 0.5063,-0.6615 0.8162,-0.9288 0.3657,-0.3516 0.774,-0.6755 1.2101,-0.9568 0.3938,0.4501 0.774,0.9428 1.2241,1.4069 l 1.407,1.4774 1.407,1.4069 c 0.5204,0.4923 1.0272,0.9569 1.5476,1.407 -0.2813,0.2391 -0.5626,0.4642 -0.8725,0.6615 -0.3235,0.197 -0.6615,0.3798 -1.0131,0.5205 -0.3517,0.1547 -0.7318,0.2672 -1.1116,0.3375 -0.3939,0.0844 -0.7881,0.1407 -1.196,0.1407 -0.6053,0.0141 -1.196,-0.0844 -1.7727,-0.2532 -0.4642,-0.1688 -0.8866,-0.422 -1.2523,-0.7459 -0.3235,-0.3235 -0.5907,-0.6896 -0.774,-1.1116 -0.1547,-0.4501 -0.2391,-0.9287 -0.2391,-1.407 -0.0141,-0.3376 0.0281,-0.6755 0.1266,-0.9991 m 46.6584,3.0403 c 0,-0.1406 0,-0.2532 -0.0703,-0.3516 -0.0703,-0.0985 0,-0.1407 -0.1266,-0.1688 -0.0562,-0.0141 -0.1125,-0.0141 -0.1688,0 -0.225,0.0281 -0.4501,0.1406 -0.6193,0.2954 -0.3235,0.2391 -0.6615,0.4501 -1.0131,0.6333 -0.4501,0.2532 -0.9147,0.4642 -1.407,0.6475 -0.6474,0.1828 -1.3226,0.2813 -1.9982,0.2813 -0.8584,0.014 -1.7023,-0.1547 -2.4764,-0.4923 -0.7037,-0.3235 -1.3225,-0.8022 -1.8153,-1.407 -0.5204,-0.7037 -0.9006,-1.5055 -1.1116,-2.3639 -0.2953,-1.0694 -0.436,-2.1669 -0.4219,-3.2785 -0.0141,-1.0976 0.1266,-2.1951 0.4219,-3.2645 0.2392,-0.8866 0.6334,-1.7164 1.1679,-2.4483 0.4642,-0.6474 1.0835,-1.1678 1.7868,-1.5336 0.7459,-0.3375 1.5476,-0.5063 2.3638,-0.5063 0.6897,-0.0141 1.3648,0.0844 2.0263,0.2954 0.4923,0.1687 0.9569,0.3797 1.407,0.6474 0.3517,0.1828 0.6756,0.4079 0.985,0.6474 0.1547,0.1407 0.3517,0.2391 0.5486,0.2813 0.0844,0.0141 0.1688,0.0141 0.2532,0 0.0281,-0.0703 0.0703,-0.1406 0.1125,-0.2109 0.0422,-0.1126 0.0703,-0.2251 0.0985,-0.3517 0,-0.1547 0,-0.3094 0,-0.5063 0,-0.197 0,-0.3517 0,-0.4783 0.014,-0.1125 0.014,-0.211 0,-0.3235 -0.0282,-0.0844 -0.0563,-0.1688 -0.0985,-0.2532 -0.0703,-0.1125 -0.1547,-0.211 -0.2532,-0.2954 -0.225,-0.1969 -0.4642,-0.3797 -0.7178,-0.5345 -0.3938,-0.2109 -0.788,-0.3938 -1.21,-0.5485 -0.4642,-0.1688 -0.9288,-0.2954 -1.407,-0.3798 -0.5345,-0.1125 -1.0835,-0.1688 -1.632,-0.1688 -1.182,-0.014 -2.3639,0.211 -3.4474,0.6897 -1.0272,0.4501 -1.9419,1.1256 -2.6733,1.984 -0.76,0.9569 -1.3507,2.0404 -1.7446,3.1942 -0.4219,1.3648 -0.6193,2.7858 -0.6052,4.2214 -0.0281,1.407 0.1829,2.8139 0.5908,4.1506 0.3235,1.1257 0.8865,2.167 1.632,3.0535 0.7037,0.8022 1.5758,1.4351 2.5608,1.8294 1.0835,0.436 2.2373,0.6474 3.4051,0.6193 0.6756,0 1.3367,-0.0563 1.9982,-0.1829 0.5626,-0.1266 1.0975,-0.2813 1.632,-0.4923 0.4079,-0.1688 0.7881,-0.3657 1.1679,-0.5907 0.3376,-0.211 0.5345,-0.3657 0.6474,-0.4501 l 0.197,-0.2673 c 0.0422,-0.0844 0.0703,-0.1688 0.0843,-0.2532 0.0141,-0.0984 0.0141,-0.1969 0,-0.2953 v -0.422 c 0,-0.2391 0,-0.422 0,-0.5767 z m 17.2645,-6.0503 c 0.0281,-0.7459 -0.0704,-1.4914 -0.2813,-2.2092 -0.1688,-0.5907 -0.4783,-1.1256 -0.9007,-1.5617 -0.4501,-0.4501 -1.0131,-0.774 -1.6179,-0.9569 -0.8022,-0.2391 -1.6321,-0.3516 -2.4764,-0.3375 -0.5205,0 -1.0272,0.0562 -1.5336,0.1547 -0.4782,0.0844 -0.9428,0.1969 -1.407,0.3376 -0.3798,0.1406 -0.7599,0.2953 -1.1257,0.4782 -0.2531,0.1266 -0.4923,0.2813 -0.6896,0.4782 -0.1125,0.0985 -0.211,0.2392 -0.2672,0.3798 -0.0141,0.1969 -0.0141,0.4079 0,0.6053 -0.0282,0.1406 -0.0282,0.2672 0,0.4079 0.014,0.1125 0.0422,0.2109 0.0844,0.3094 0,0.0703 0.0984,0.1407 0.1687,0.1688 0.0563,0.0422 0.1407,0.0703 0.211,0.0703 0.1829,-0.0281 0.3657,-0.1125 0.5205,-0.225 0.2672,-0.1407 0.5626,-0.3095 0.9287,-0.4642 0.4079,-0.1969 0.8303,-0.3516 1.2663,-0.4923 0.5205,-0.1407 1.0694,-0.2251 1.618,-0.211 0.4782,-0.0141 0.9569,0.0563 1.407,0.211 0.3657,0.1125 0.6896,0.3235 0.9569,0.5908 0.2532,0.2813 0.436,0.6333 0.5345,0.999 0.1125,0.4642 0.1688,0.9288 0.1547,1.407 v 1.0413 l -1.8285,4e-4 c -0.9429,-0.014 -1.8857,0.0844 -2.814,0.2813 -0.7459,0.1407 -1.4773,0.422 -2.1248,0.8303 -0.5626,0.3376 -1.0272,0.8303 -1.3366,1.407 -0.2954,0.6052 -0.4501,1.2804 -0.4501,1.956 -0.0141,0.6052 0.0984,1.21 0.3376,1.7586 0.2109,0.4923 0.5344,0.9288 0.9428,1.2663 0.4079,0.3798 0.8865,0.6475 1.407,0.8163 0.6193,0.1687 1.2663,0.2672 1.9137,0.2672 0.7881,0 1.5617,-0.1688 2.2654,-0.5204 0.7459,-0.3376 1.4211,-0.8163 1.9841,-1.407 v 1.407 c -0.014,0.1125 0.0282,0.211 0.1125,0.2813 0,0.0703 0.1688,0.0984 0.3236,0.1406 0.1547,0.0422 0.3375,0 0.6193,0 0.2817,0 0.4641,0 0.6052,0 0.1266,-0.0281 0.2391,-0.0703 0.3376,-0.1406 0.0703,-0.0703 0.0984,-0.1547 0.0984,-0.2532 z m -2.4342,5.769 c -0.4923,0.5908 -1.0835,1.1116 -1.7446,1.5195 -0.5345,0.3376 -1.1538,0.5204 -1.7867,0.5064 -0.6756,0.0281 -1.3508,-0.1969 -1.8575,-0.6475 -0.4501,-0.4219 -0.6897,-1.0272 -0.6615,-1.6461 0,-0.3797 0.0703,-0.7459 0.225,-1.0975 0.1688,-0.3235 0.4079,-0.5908 0.7037,-0.7881 0.3798,-0.2532 0.8162,-0.422 1.2663,-0.4923 0.5767,-0.1407 1.1679,-0.211 1.7587,-0.1969 h 2.0966 z m 18.7703,-9.8497 c 0,-0.1407 0,-0.2391 0,-0.3095 -0.0141,-0.0562 -0.0422,-0.1125 -0.0844,-0.1688 -0.0141,-0.0562 -0.0563,-0.1125 -0.0985,-0.1547 -0.0844,0 -0.1828,-0.0984 -0.3094,-0.1406 l -0.4923,-0.1126 c -0.1688,-0.0562 -0.3376,-0.0844 -0.5064,-0.0984 h -0.4369 c -0.2953,0.014 -0.5767,0.0562 -0.8584,0.1266 -0.3094,0.0703 -0.6052,0.2109 -0.8584,0.3938 -0.3376,0.2251 -0.6334,0.4923 -0.9006,0.8022 -0.3939,0.3938 -0.7459,0.8443 -1.0554,1.3085 V 401.68 c 0.0141,-0.0703 0.0141,-0.1266 0,-0.1969 -0.0422,-0.0704 -0.0984,-0.1266 -0.1828,-0.1547 -0.0985,-0.0704 -0.211,-0.0985 -0.3235,-0.0985 h -1.0972 c -0.1125,0 -0.2391,0.0422 -0.3375,0.0985 -0.0985,0 -0.1688,0.0843 -0.1829,0.1547 -0.0141,0.0703 -0.0141,0.1266 0,0.1969 v 13.4514 c -0.0141,0.0703 -0.0141,0.1406 0,0.211 l 0.1969,0.1406 c 0.1266,0.0141 0.2673,0.0141 0.3939,0 0.1969,0.0141 0.3938,0.0141 0.5907,0 0.2391,0 0.4501,0 0.6053,0 0.1266,0.0141 0.2391,0.0141 0.3657,0 0.0703,-0.0562 0.1406,-0.0984 0.211,-0.1406 0,-0.0704 0,-0.1407 0,-0.211 v -8.8503 c 0.3516,-0.5626 0.6755,-1.0131 0.9568,-1.4069 0.2392,-0.3236 0.5205,-0.6334 0.8163,-0.9147 0.2391,-0.1969 0.4923,-0.3517 0.7599,-0.4923 0.422,-0.1548 0.8725,-0.1829 1.3086,-0.0844 l 0.4782,0.1125 0.4079,0.1547 c 0.0844,0.0141 0.1829,0.0141 0.2672,0 0.0704,0.0282 0.1407,0.0282 0.211,0 0.0422,-0.0562 0.0844,-0.1266 0.0985,-0.1969 0.0141,-0.1266 0.0141,-0.2391 0,-0.3657 0,-0.1407 0,-0.3235 0,-0.5486 z m 9.2163,-0.3376 c 0.0141,-0.0703 0.0141,-0.1266 0,-0.1969 -0.0422,-0.0704 -0.1125,-0.1266 -0.1969,-0.1407 -0.1266,-0.0562 -0.2532,-0.0844 -0.3798,-0.0984 h -0.5911 -0.6193 c -0.1266,0.014 -0.2532,0.0422 -0.3798,0.0984 -0.0844,0.0281 -0.1547,0.0703 -0.211,0.1407 0,0.0703 0,0.1266 0,0.1969 v 13.4514 c 0,0.0703 0,0.1406 0,0.211 l 0.211,0.1406 c 0.1266,0.0141 0.2532,0.0141 0.3798,0 0.2109,0.0141 0.4079,0.0141 0.6193,0 0.225,0 0.4219,0 0.5907,0 0.1266,0.0141 0.2532,0.0141 0.3798,0 l 0.1969,-0.1406 c 0.0141,-0.0704 0.0141,-0.1407 0,-0.211 z m 0,-5.6987 c -0.3375,-0.2391 -0.7599,-0.3516 -1.1819,-0.2954 -0.436,-0.0562 -0.8584,0.0563 -1.2241,0.2954 -0.2392,0.3516 -0.3517,0.774 -0.3095,1.196 -0.0422,0.4079 0.0703,0.8162 0.3095,1.1538 0.3516,0.2391 0.774,0.3376 1.196,0.2954 0.436,0.0422 0.8584,-0.0703 1.21,-0.3235 0.2532,-0.3376 0.3657,-0.7459 0.3235,-1.1679 0.0563,-0.4079 -0.0703,-0.8299 -0.3235,-1.1538 z m 20.0925,10.9473 c 0.0141,-0.8163 -0.0563,-1.6461 -0.2391,-2.4483 -0.1547,-0.6474 -0.4361,-1.2663 -0.8303,-1.8012 -0.3657,-0.5064 -0.8584,-0.9288 -1.407,-1.2242 -0.7178,-0.3235 -1.4914,-0.4782 -2.2795,-0.4501 -0.7881,0.0141 -1.5757,0.211 -2.2654,0.6053 -0.8584,0.4641 -1.618,1.0834 -2.2373,1.8434 v -1.8575 c 0.0141,-0.0844 -0.0281,-0.1547 -0.0984,-0.1969 0,0 0,-0.1125 -0.1266,-0.1547 -0.0985,-0.0563 -0.2251,-0.0844 -0.3376,-0.0985 l -1.0975,-4e-4 c -0.1266,0 -0.2391,0.0422 -0.3517,0.0985 -0.0703,0.0281 -0.1266,0.0843 -0.1688,0.1547 -0.014,0.0703 -0.014,0.1266 0,0.1969 v 13.4514 c 0,0.0703 0.0282,0.1547 0.0704,0.211 0.0562,0.0562 0.1125,0.0984 0.1828,0.1406 0.1266,0.0141 0.2532,0.0141 0.3798,0 0.211,0.0141 0.4079,0.0141 0.6193,0 0.1969,0.0141 0.3798,0.0141 0.5767,0 0.1407,0.0141 0.2672,0.0141 0.4079,0 l 0.1688,-0.1406 c 0.0141,-0.0704 0.0141,-0.1407 0,-0.211 v -9.4133 c 0.5626,-0.7178 1.2101,-1.3648 1.9278,-1.9138 0.5486,-0.4079 1.196,-0.6333 1.8716,-0.6615 0.422,-0.014 0.8584,0.0704 1.2382,0.2532 0.3657,0.1829 0.6756,0.4501 0.9006,0.7881 0.2391,0.3657 0.4079,0.7881 0.5064,1.2101 0.1406,0.6052 0.211,1.2382 0.1969,1.8575 v 7.8797 c -0.0141,0.0703 -0.0141,0.1406 0,0.211 l 0.225,0.1406 c 0.1126,0.0282 0.2392,0.0282 0.3517,0 0.1969,0.0141 0.4079,0.0141 0.6052,0 0.197,0.0141 0.3939,0.0141 0.5908,0 0.1266,0.0141 0.2532,0.0141 0.3798,0 l 0.1828,-0.1406 c 0.0282,-0.0704 0.0282,-0.1407 0,-0.211 z m 19.5302,-5.3893 c -0.0562,-0.1547 -0.1969,-0.2531 -0.3657,-0.2531 h -4.0666 l -0.971,-0.1829 c -0.3797,-0.0422 -0.774,-0.0703 -1.1538,-0.0703 -0.7177,0 -1.4351,0.1125 -2.1106,0.3375 -0.6053,0.211 -1.1538,0.5345 -1.6321,0.9569 -0.4641,0.4361 -0.8303,0.9569 -1.0835,1.5336 -0.2953,0.6193 -0.4641,1.2804 -0.5204,1.956 -0.0141,0.5767 0.0844,1.1538 0.2813,1.7023 0.1688,0.4642 0.422,0.8866 0.7319,1.2523 -0.3658,0.3798 -0.6756,0.8162 -0.9147,1.2804 -0.2673,0.5064 -0.4079,1.0694 -0.3939,1.632 0.0141,0.4361 0.1266,0.8585 0.3517,1.2242 0.2672,0.4079 0.6474,0.7318 1.0975,0.9287 -0.3376,0.2673 -0.6052,0.5204 -0.8584,0.76 -0.2251,0.2391 -0.422,0.5063 -0.5908,0.8021 -0.1688,0.2673 -0.2953,0.5767 -0.3797,0.8866 -0.0844,0.3094 -0.1266,0.6193 -0.1266,0.9428 0,0.4923 0.1266,0.971 0.3516,1.407 0.2251,0.4782 0.6052,0.8865 1.0554,1.1538 0.5766,0.3657 1.21,0.6052 1.8715,0.7318 1.8575,0.3939 3.7849,0.3657 5.6284,-0.0703 0.7318,-0.1969 1.4351,-0.5345 2.0403,-0.9991 0.5064,-0.3657 0.9007,-0.8443 1.182,-1.407 0.2532,-0.5626 0.3797,-1.1678 0.3938,-1.7727 0.0141,-0.5345 -0.1125,-1.0553 -0.3516,-1.5335 -0.2392,-0.4361 -0.5627,-0.8303 -0.9569,-1.1257 -0.422,-0.3235 -0.9006,-0.5486 -1.407,-0.7037 -0.5908,-0.1688 -1.2101,-0.2532 -1.8294,-0.2673 l -3.4895,-0.1547 c -0.4642,0.0141 -0.9147,-0.1266 -1.2945,-0.3798 -0.3094,-0.1687 -0.5063,-0.5063 -0.5063,-0.8584 0,-0.2813 0.0562,-0.5485 0.1828,-0.8021 0.1125,-0.2251 0.2532,-0.4361 0.422,-0.6193 0.3516,0.2531 0.7318,0.4501 1.1538,0.5626 0.5064,0.1547 1.0272,0.225 1.5617,0.211 0.7178,0.014 1.4351,-0.0985 2.1107,-0.3376 0.6052,-0.1969 1.1679,-0.5204 1.6461,-0.9428 0.4642,-0.4079 0.8303,-0.9288 1.0553,-1.5055 0.2673,-0.6615 0.3939,-1.3648 0.3798,-2.0685 0,-0.4501 -0.0703,-0.9006 -0.211,-1.3366 -0.1266,-0.4501 -0.3798,-0.8725 -0.7177,-1.196 l 1.9274,-4e-4 c 0.1547,-0.0141 0.2954,-0.0985 0.3516,-0.2391 0.1125,-0.2392 0.1688,-0.4923 0.1547,-0.7459 0.0141,-0.2673 -0.0422,-0.5205 -0.1406,-0.76 m -3.8693,5.4178 c -0.1266,0.3516 -0.3095,0.6615 -0.5486,0.9428 -0.2391,0.2813 -0.5486,0.5064 -0.8866,0.6334 -0.3938,0.1688 -0.8162,0.2531 -1.2522,0.2391 -1.4351,0.1125 -2.7015,-0.9569 -2.814,-2.4061 -0.0141,-0.1406 -0.0141,-0.2672 0,-0.4079 0,-0.3798 0.0563,-0.774 0.1688,-1.1397 0.0985,-0.3517 0.2813,-0.6756 0.5204,-0.9569 0.2392,-0.2954 0.5345,-0.5204 0.8866,-0.6474 0.3798,-0.1829 0.8021,-0.2673 1.2241,-0.2532 0.7881,-0.0563 1.5617,0.225 2.1388,0.7599 0.5205,0.5908 0.8022,1.3508 0.76,2.1388 -0.0141,0.3798 -0.0563,0.7741 -0.1547,1.1398 m 1.1956,10.4959 c -0.1688,0.3235 -0.3939,0.6052 -0.6756,0.8303 -0.3657,0.2673 -0.7881,0.4501 -1.2241,0.5767 -0.6053,0.1407 -1.2101,0.211 -1.8294,0.211 -0.971,0.0562 -1.9278,-0.1125 -2.814,-0.5064 -0.5767,-0.2391 -0.9569,-0.7881 -0.985,-1.407 0,-0.211 0.0281,-0.4219 0.0844,-0.6193 0.0422,-0.211 0.1266,-0.4219 0.2391,-0.6052 0.1407,-0.2391 0.2954,-0.4501 0.4783,-0.6475 0.2391,-0.2531 0.5063,-0.4923 0.774,-0.7177 l 3.4755,0.1406 c 0.6755,-0.0281 1.3366,0.1407 1.9137,0.5064 0.4642,0.2673 0.76,0.774 0.7459,1.3226 -0.014,0.3376 -0.0844,0.6615 -0.225,0.9709 z m 0,0 z"
       style="fill:#868789;fill-rule:evenodd"
       id="path2" />
    <path
       d="m 576.2017,389.9169 c 0,-0.1266 -0.0422,-0.2532 -0.1406,-0.3516 -0.0985,-0.1407 -0.2532,-0.2251 -0.422,-0.2673 l -0.7881,-0.1688 c -0.3235,0 -0.7599,0 -1.2804,0 -0.5204,0 -0.9147,0 -1.2522,0 l -0.8022,0.1688 c -0.1688,0.0282 -0.3235,0.1266 -0.422,0.2673 -0.0984,0.0844 -0.1547,0.211 -0.1547,0.3516 v 24.342 c 0,0.1406 0.0563,0.2672 0.1547,0.3657 0,0.1125 0.211,0.1829 0.422,0.2672 0.2532,0.0704 0.5204,0.1266 0.7881,0.1407 0.422,0.0422 0.8444,0.0703 1.2663,0.0703 0.422,0 0.8584,-0.014 1.2804,-0.0703 0.2673,-0.0281 0.5345,-0.0703 0.7881,-0.1407 0.1547,-0.0562 0.3095,-0.1406 0.422,-0.2672 0.0984,-0.0985 0.1406,-0.2251 0.1406,-0.3657 z m 22.2173,13.3951 c 0.014,-1.1116 -0.0985,-2.2091 -0.3236,-3.2926 -0.2109,-0.8584 -0.5766,-1.6742 -1.0975,-2.392 -0.5204,-0.7037 -1.2101,-1.2663 -2.0122,-1.632 -0.9569,-0.422 -1.9982,-0.6334 -3.0535,-0.6053 -1.1116,0 -2.2092,0.2814 -3.1801,0.8022 -1.1116,0.6193 -2.1107,1.4351 -2.9687,2.3779 v -2.0403 c 0,-0.1266 -0.0422,-0.2532 -0.1266,-0.3517 -0.0703,-0.1125 -0.1829,-0.1969 -0.3094,-0.2391 -0.211,-0.0844 -0.422,-0.1406 -0.6475,-0.1688 h -1.0549 -1.0272 c -0.2251,0.0282 -0.4501,0.0844 -0.6615,0.1688 -0.1407,0.0422 -0.2673,0.1266 -0.3657,0.2391 -0.0563,0.1126 -0.0985,0.2251 -0.0844,0.3517 v 17.8134 c 0,0.1125 0.0422,0.2391 0.0984,0.3376 0.1126,0.1125 0.2532,0.2109 0.4079,0.2531 0.2532,0.0844 0.5205,0.1407 0.7881,0.1688 0.3235,0 0.7178,0 1.196,0 0.4783,0 0.9007,0 1.2101,0 0.2672,-0.014 0.5204,-0.0703 0.774,-0.1688 0.1547,-0.0422 0.2954,-0.1265 0.3939,-0.2531 0.0844,-0.0985 0.1266,-0.211 0.1266,-0.3376 V 402.538 c 0.5626,-0.774 1.2382,-1.4632 2.0122,-2.0404 0.5485,-0.436 1.2241,-0.6755 1.9278,-0.7037 0.4501,-0.014 0.9006,0.0985 1.3085,0.3095 0.3657,0.1828 0.6897,0.4642 0.9288,0.8022 0.2532,0.3797 0.436,0.8162 0.5345,1.2663 0.1406,0.6615 0.1969,1.3507 0.1828,2.0263 v 10.1447 c 0,0.1266 0.0422,0.2391 0.1266,0.3375 0.0985,0.1266 0.2532,0.211 0.4079,0.2532 0.2392,0.0985 0.5064,0.1548 0.76,0.1688 0.3094,0 0.7459,0 1.2241,0 0.4783,0 0.8585,0 1.196,0 0.2673,-0.014 0.5205,-0.0844 0.7741,-0.1688 0.2813,-0.0562 0.4923,-0.2954 0.5063,-0.5907 z m 17.0398,3.8557 c -0.2392,-0.5626 -0.5908,-1.0694 -1.0132,-1.5054 -0.4079,-0.4361 -0.8865,-0.8022 -1.407,-1.0976 -0.5204,-0.2813 -1.0553,-0.5345 -1.6039,-0.76 -0.5204,-0.2109 -1.0413,-0.436 -1.5617,-0.6193 -0.4782,-0.1547 -0.9569,-0.3516 -1.407,-0.5767 -0.3798,-0.1828 -0.7177,-0.436 -0.9991,-0.7318 -0.2531,-0.2813 -0.3938,-0.6615 -0.3938,-1.0413 0,-0.5485 0.2391,-1.0553 0.6615,-1.4069 0.2251,-0.197 0.4923,-0.3376 0.7881,-0.408 0.3938,-0.0843 0.7881,-0.1265 1.1819,-0.1265 0.5767,-0.0141 1.1538,0.0703 1.7165,0.2109 0.436,0.1126 0.8725,0.2532 1.2944,0.4361 0.3235,0.1266 0.6475,0.2813 0.9428,0.4641 0.1829,0.0985 0.3798,0.1688 0.5767,0.197 0.0985,0 0.1829,-0.0282 0.2673,-0.0704 0.0984,-0.0703 0.1688,-0.1687 0.1969,-0.2813 0.0422,-0.1688 0.0703,-0.3516 0.0844,-0.5204 0.0141,-0.2954 0.0141,-0.5908 0,-0.8866 0.0141,-0.2531 0.0141,-0.5063 0,-0.7599 0,-0.211 0,-0.3798 0,-0.5205 -0.0281,-0.1265 -0.0703,-0.2531 -0.1266,-0.3657 -0.0844,-0.1125 -0.1688,-0.2109 -0.2813,-0.2953 -0.1829,-0.1407 -0.3938,-0.2673 -0.6052,-0.3658 -0.3095,-0.1265 -0.6475,-0.2531 -1.0695,-0.3938 -0.4219,-0.1406 -0.9006,-0.1969 -1.4069,-0.2813 -0.5345,-0.0985 -1.0695,-0.1407 -1.618,-0.1266 -1.0132,0 -2.0263,0.1266 -3.0113,0.4079 -0.8162,0.2532 -1.5899,0.6615 -2.2654,1.1819 -0.5908,0.4923 -1.0694,1.1116 -1.407,1.8153 -0.3235,0.7459 -0.4923,1.5477 -0.4782,2.3639 -0.0141,0.7318 0.1125,1.4633 0.3657,2.1529 0.225,0.5626 0.5485,1.0694 0.9568,1.5195 0.422,0.422 0.8866,0.7881 1.407,1.0835 0.5064,0.2954 1.0272,0.5626 1.5758,0.774 0.5345,0.2391 1.0553,0.436 1.5758,0.6334 0.4923,0.1547 0.9569,0.3516 1.407,0.5907 0.3797,0.1688 0.7177,0.422 0.985,0.7319 0.2532,0.2813 0.3938,0.6615 0.3798,1.0413 0.014,0.3235 -0.0704,0.6333 -0.2251,0.9146 -0.1125,0.2673 -0.3235,0.4923 -0.5767,0.6475 -0.2813,0.1828 -0.5908,0.3094 -0.9147,0.3938 -0.3938,0.1125 -0.7881,0.1547 -1.196,0.1407 -0.6474,0.014 -1.2944,-0.0704 -1.9137,-0.2391 -0.5064,-0.1688 -0.9991,-0.3517 -1.4914,-0.5627 -0.4361,-0.1969 -0.7741,-0.3797 -1.0694,-0.5485 -0.1829,-0.1407 -0.3939,-0.2251 -0.6193,-0.2673 -0.1126,-0.0141 -0.211,0.0141 -0.2954,0.0844 -0.1125,0.0703 -0.1829,0.1688 -0.2251,0.2813 -0.0703,0.1829 -0.0984,0.3657 -0.1125,0.5627 -0.0141,0.2953 -0.0141,0.6052 0,0.9006 -0.0281,0.4501 0.0141,0.9006 0.1266,1.3366 0.0422,0.2532 0.1547,0.4923 0.3235,0.6756 0.2251,0.1688 0.4501,0.3094 0.7037,0.436 0.3798,0.1829 0.774,0.3517 1.1819,0.4642 0.5205,0.1688 1.0694,0.2954 1.618,0.3798 1.6602,0.2391 3.3348,0.1688 4.9669,-0.2251 0.8725,-0.2532 1.6883,-0.6474 2.4201,-1.1819 0.6896,-0.5064 1.2382,-1.1679 1.618,-1.9278 0.3797,-0.8444 0.5767,-1.7587 0.5626,-2.6874 0.0141,-0.7178 -0.1125,-1.4351 -0.3798,-2.0966 z m 21.1478,-10.6937 c 0,-0.1266 -0.0282,-0.2532 -0.0985,-0.3516 -0.1125,-0.1125 -0.2532,-0.1829 -0.4079,-0.2391 -0.2391,-0.0844 -0.5064,-0.1548 -0.76,-0.1688 l -1.21,-4e-4 h -1.2242 c -0.2531,0.0281 -0.5063,0.0844 -0.7459,0.1688 -0.1547,0.0421 -0.2953,0.1265 -0.4219,0.2391 -0.0704,0.1125 -0.0985,0.225 -0.1126,0.3516 v 11.8194 c -0.5767,0.774 -1.2522,1.4491 -2.0262,2.0262 -0.5486,0.422 -1.2242,0.6756 -1.9138,0.7037 -0.4642,0.0141 -0.9288,-0.0843 -1.3367,-0.2953 -0.3797,-0.1829 -0.7037,-0.4783 -0.9287,-0.8303 -0.2673,-0.3657 -0.4501,-0.7881 -0.5345,-1.2382 -0.1547,-0.7037 -0.2251,-1.4351 -0.1969,-2.1529 V 396.474 c 0,-0.1266 -0.0422,-0.2532 -0.1126,-0.3516 -0.1125,-0.1125 -0.2672,-0.1969 -0.4219,-0.2391 -0.2392,-0.0844 -0.4923,-0.1407 -0.7459,-0.1688 l -1.2101,-4e-4 h -1.196 c -0.2672,0.014 -0.5345,0.0703 -0.7881,0.1688 -0.1547,0.0421 -0.2954,0.1125 -0.3938,0.2391 -0.0704,0.0984 -0.1126,0.225 -0.1126,0.3516 v 10.8765 c -0.014,1.1398 0.0844,2.2795 0.3236,3.4052 0.1969,0.8584 0.5626,1.6742 1.0975,2.3779 0.5064,0.7178 1.196,1.2804 1.9982,1.6461 0.9709,0.422 2.0262,0.6334 3.0816,0.5908 1.0975,0 2.181,-0.2673 3.1379,-0.8022 1.1257,-0.6193 2.1247,-1.407 2.9827,-2.3638 v 2.0403 c 0,0.1125 0.0282,0.2391 0.0844,0.3376 0.0704,0.1125 0.1829,0.211 0.3235,0.2532 0.211,0.0844 0.4361,0.1406 0.6616,0.1688 0.2813,0 0.6193,0 1.0553,0 0.436,0 0.774,0 1.0272,0 0.2251,-0.0282 0.4501,-0.0844 0.6615,-0.1688 0.1407,-0.0422 0.2673,-0.1266 0.3517,-0.2532 0.0562,-0.0985 0.0843,-0.2251 0.0843,-0.3376 z m 16.3923,0.5205 c 0.0141,-0.211 0.0141,-0.4079 0,-0.6193 0,-0.1407 -0.0703,-0.2673 -0.0984,-0.3376 -0.0422,-0.0844 -0.0985,-0.1547 -0.1688,-0.2251 -0.0985,-0.0844 -0.211,-0.1547 -0.3376,-0.1828 -0.1829,-0.0704 -0.3657,-0.1266 -0.5626,-0.1688 -0.197,-0.0563 -0.3939,-0.0844 -0.6053,-0.0985 h -0.5771 c -0.3657,-0.014 -0.7318,0.0422 -1.0835,0.1688 -0.3938,0.0985 -0.774,0.2673 -1.1116,0.5064 -0.436,0.2954 -0.8303,0.6474 -1.196,1.0272 -0.4782,0.5204 -0.9146,1.0694 -1.3085,1.6461 v -2.2092 c 0,-0.1265 -0.0281,-0.2531 -0.0984,-0.3516 -0.0844,-0.1125 -0.197,-0.1969 -0.3236,-0.2391 -0.2109,-0.0985 -0.436,-0.1547 -0.6615,-0.1688 h -1.0408 -0.9991 c -0.2391,0.0141 -0.4642,0.0703 -0.6896,0.1688 -0.1407,0.0422 -0.2673,0.1266 -0.3657,0.2391 -0.0563,0.1125 -0.0985,0.2251 -0.0985,0.3516 v 17.8416 c 0,0.1266 0.0422,0.2391 0.1266,0.3376 0.0984,0.1266 0.2391,0.2109 0.3938,0.2531 0.2532,0.0844 0.5064,0.1407 0.7741,0.1688 0.3094,0 0.7318,0 1.2241,0 0.4923,0 0.8865,0 1.196,0 0.2672,-0.014 0.5204,-0.0703 0.7599,-0.1688 0.1688,-0.0281 0.3095,-0.1265 0.422,-0.2531 -0.014,-0.1266 -0.0703,-0.2392 -0.1547,-0.3376 v -11.1157 c 0.3235,-0.5063 0.6756,-0.999 1.0553,-1.4773 0.2673,-0.3516 0.5767,-0.6755 0.9147,-0.9569 0.2532,-0.2109 0.5345,-0.3938 0.8444,-0.5204 0.2672,-0.0984 0.5485,-0.1547 0.8443,-0.1688 0.2251,-0.014 0.4501,0.0141 0.6615,0.0844 0.1829,0.0281 0.3657,0.0703 0.5486,0.1266 0.1407,0.0703 0.3094,0.1125 0.436,0.1688 0.1126,0.0281 0.2392,0.0281 0.3517,0 0.1125,0.0141 0.2391,-0.0141 0.3376,-0.0844 0.0984,-0.0985 0.1687,-0.225 0.1969,-0.3657 0.0703,-0.2251 0.1125,-0.4782 0.1125,-0.7178 0.0281,-0.3938 0.0281,-0.7881 0,-1.1819 0,-0.4782 0,-0.8444 0,-1.1257 z m 16.9972,5.3751 c 0.0281,-1.0694 -0.1125,-2.1529 -0.4079,-3.1801 -0.2673,-0.8303 -0.7459,-1.5898 -1.407,-2.1669 -0.6896,-0.6053 -1.5195,-1.0413 -2.4201,-1.2663 -1.1679,-0.2814 -2.3639,-0.422 -3.5599,-0.4079 -1.4632,0.014 -2.9265,0.2391 -4.3339,0.6755 -0.6052,0.2251 -1.1679,0.422 -1.632,0.6475 -0.3517,0.1687 -0.6756,0.3797 -0.9569,0.6474 -0.1829,0.1828 -0.3235,0.4079 -0.4079,0.6615 -0.0563,0.3235 -0.0844,0.6474 -0.0703,0.9709 -0.0141,0.2814 0.014,0.5627 0.0703,0.8303 0,0.2251 0.0563,0.4361 0.1547,0.6334 0.0563,0.1407 0.1407,0.2813 0.2673,0.3798 0.0984,0.0984 0.2391,0.1688 0.3797,0.1688 0.2954,-0.0282 0.5767,-0.1266 0.8303,-0.2954 l 1.2804,-0.6193 c 0.5626,-0.2391 1.1538,-0.4501 1.7446,-0.6053 0.7177,-0.1969 1.4632,-0.2953 2.2091,-0.2813 0.5486,-0.014 1.0835,0.0563 1.618,0.197 0.3938,0.1125 0.7459,0.3235 1.0272,0.6193 0.2813,0.2953 0.4642,0.6615 0.5345,1.0553 0.1266,0.4642 0.1829,0.9288 0.1829,1.407 v 1.0694 l -1.6598,-8e-4 c -1.421,-0.0141 -2.828,0.1125 -4.2214,0.3797 -1.0412,0.1829 -2.0544,0.5486 -2.9687,1.0835 -0.7599,0.4642 -1.3788,1.1116 -1.8012,1.8997 -0.422,0.8303 -0.6474,1.7586 -0.6193,2.7015 -0.0141,0.8584 0.1547,1.7164 0.4923,2.5186 0.3235,0.7037 0.8022,1.3225 1.407,1.8012 0.6052,0.4923 1.3085,0.8725 2.0544,1.0975 0.8303,0.2391 1.7024,0.3657 2.5749,0.3517 1.0694,0.014 2.1388,-0.211 3.1097,-0.6475 0.9428,-0.4501 1.8013,-1.0694 2.5046,-1.8434 v 1.407 c -0.0141,0.1688 0.0562,0.3235 0.1687,0.436 0.1548,0.1266 0.3517,0.211 0.5627,0.2391 0.436,0.0563 0.8865,0.0844 1.3226,0.0704 0.4219,0 0.8303,-0.0141 1.2522,-0.0704 0.2251,-0.0281 0.422,-0.1125 0.6053,-0.2391 0.1266,-0.1125 0.1969,-0.2672 0.1828,-0.436 z m -4.8825,7.373 c -0.5063,0.6052 -1.1116,1.1256 -1.7727,1.5617 -0.6052,0.3657 -1.2803,0.5485 -1.984,0.5345 -0.7037,0.0422 -1.393,-0.1829 -1.9279,-0.6334 -0.4782,-0.4501 -0.7459,-1.0976 -0.7037,-1.7586 -0.014,-0.3939 0.0704,-0.7881 0.2532,-1.1398 0.1547,-0.3657 0.422,-0.6755 0.774,-0.8725 0.4361,-0.2672 0.9147,-0.4501 1.407,-0.5485 0.6897,-0.1407 1.3789,-0.211 2.0826,-0.197 h 1.8856 z m 26.8188,-6.4728 c 0.0282,-1.1116 -0.0844,-2.2091 -0.3235,-3.2926 -0.1969,-0.8584 -0.5767,-1.6742 -1.0975,-2.392 -0.5205,-0.7037 -1.2101,-1.2663 -2.0123,-1.632 -0.9568,-0.422 -1.9981,-0.6334 -3.0394,-0.6053 -1.1116,0 -2.2091,0.2673 -3.1801,0.8022 -1.1257,0.6193 -2.1388,1.4211 -2.9827,2.3779 v -2.0403 c 0,-0.1266 -0.0422,-0.2532 -0.1126,-0.3517 -0.0703,-0.1125 -0.1969,-0.1969 -0.3235,-0.2391 -0.211,-0.0984 -0.422,-0.1547 -0.6474,-0.1688 h -1.0413 -1.0409 c -0.225,0.0282 -0.436,0.0844 -0.6474,0.1688 -0.1407,0.0422 -0.2813,0.1266 -0.3798,0.2391 -0.0562,0.1126 -0.0984,0.2251 -0.0844,0.3517 v 17.8556 c 0,0.1266 0.0422,0.2391 0.1126,0.3376 0.1125,0.1266 0.2531,0.225 0.4219,0.2531 0.2391,0.0985 0.5064,0.1548 0.76,0.1688 0.2954,0 0.7178,0 1.196,0 0.4782,0 0.8865,0 1.2382,0 0.2532,-0.0281 0.5064,-0.0844 0.7459,-0.1688 0.1688,-0.0281 0.3094,-0.1265 0.4079,-0.2531 0.0844,-0.0985 0.1266,-0.211 0.1406,-0.3376 V 402.538 c 0.5627,-0.774 1.2382,-1.4632 2.0123,-2.0404 0.5485,-0.436 1.2241,-0.6896 1.9278,-0.7037 0.4501,-0.014 0.9006,0.0985 1.3085,0.3095 0.3798,0.1828 0.6897,0.4501 0.9147,0.8022 0.2673,0.3797 0.4642,0.8162 0.5767,1.2663 0.1407,0.6615 0.1969,1.3507 0.1688,2.0263 v 10.1447 c 0.0141,0.1266 0.0422,0.2391 0.1125,0.3375 0.1126,0.1266 0.2532,0.211 0.4079,0.2532 0.2391,0.0844 0.5064,0.1407 0.76,0.1688 0.3235,0 0.7459,0 1.2241,0 0.4783,0 0.8725,0 1.2101,0 0.2532,-0.014 0.5204,-0.0703 0.76,-0.1688 0.1547,-0.0422 0.2953,-0.1266 0.4079,-0.2532 0.0703,-0.0984 0.0984,-0.2109 0.0984,-0.3375 z m 18.2917,7.0354 c -0.0282,-0.2391 -0.0844,-0.4642 -0.1407,-0.6897 -0.0281,-0.1265 -0.0844,-0.2531 -0.1688,-0.3657 -0.0844,-0.0703 -0.1969,-0.0984 -0.3094,-0.0984 -0.2391,0.0281 -0.4642,0.1406 -0.6334,0.3094 -0.2391,0.211 -0.5486,0.422 -0.9288,0.7037 -0.4079,0.2532 -0.8443,0.4783 -1.2803,0.6756 -0.5767,0.225 -1.182,0.3235 -1.8013,0.3094 -0.6052,0.0141 -1.2101,-0.1125 -1.7727,-0.3657 -0.5204,-0.2672 -0.9569,-0.6474 -1.2944,-1.1116 -0.3517,-0.5626 -0.6053,-1.196 -0.76,-1.8434 -0.1688,-0.8303 -0.2532,-1.6742 -0.2391,-2.5186 -0.0985,-1.5336 0.2391,-3.0676 0.9991,-4.4042 0.6755,-0.985 1.8153,-1.5617 3.0113,-1.5055 0.5767,-0.014 1.1538,0.0704 1.7023,0.2673 0.4361,0.1688 0.8444,0.3797 1.2382,0.6333 l 0.8866,0.6193 c 0.211,0.1548 0.4642,0.2532 0.7177,0.2673 0.211,0 0.3798,-0.1407 0.5205,-0.4782 0.1547,-0.5205 0.225,-1.0554 0.211,-1.6039 0.014,-0.2814 0.014,-0.5627 0,-0.8444 0.014,-0.1969 0.014,-0.3938 0,-0.5908 -0.0422,-0.1406 -0.0844,-0.2672 -0.1407,-0.3938 -0.0985,-0.1266 -0.211,-0.2532 -0.3235,-0.3798 -0.2251,-0.211 -0.4782,-0.3798 -0.7459,-0.5204 -0.3798,-0.1969 -0.774,-0.3798 -1.1819,-0.5204 -0.4642,-0.1688 -0.9288,-0.2954 -1.407,-0.3798 -0.5205,-0.0844 -1.0413,-0.1407 -1.5617,-0.1407 -1.2242,-0.014 -2.4342,0.1969 -3.574,0.6193 -1.0694,0.4079 -2.0263,1.0554 -2.8139,1.8857 -0.8444,0.9287 -1.4773,2.0263 -1.8716,3.2223 -0.4642,1.4913 -0.6896,3.0535 -0.6615,4.6152 -0.0141,1.3929 0.1688,2.7717 0.5486,4.1084 0.3235,1.0975 0.8724,2.1248 1.6179,3.0113 0.7178,0.8444 1.6321,1.5055 2.6733,1.8997 1.1538,0.436 2.378,0.6615 3.6162,0.6334 0.6052,0 1.196,-0.0422 1.7867,-0.1407 0.5345,-0.1125 1.0554,-0.2532 1.5617,-0.436 0.4642,-0.1547 0.9007,-0.3376 1.3226,-0.5767 0.2954,-0.1407 0.5767,-0.3376 0.8163,-0.5767 0.1266,-0.0985 0.2391,-0.2251 0.3094,-0.3657 0.0703,-0.1125 0.1125,-0.2532 0.1125,-0.3939 0.0563,-0.1969 0.0844,-0.3938 0.0985,-0.5907 0,-0.211 0,-0.5204 0,-0.8725 0,-0.3521 0,-0.774 0,-1.0694 z m 20.1491,-6.2754 c 0.0141,-1.1819 -0.1406,-2.3498 -0.4782,-3.4755 -0.2813,-1.0413 -0.7881,-1.9981 -1.4914,-2.8139 -0.7037,-0.8022 -1.5898,-1.4211 -2.5889,-1.8013 -1.2101,-0.4923 -2.5046,-0.7178 -3.799,-0.6756 -1.2945,-0.014 -2.5749,0.2251 -3.7709,0.7037 -1.0834,0.4501 -2.0403,1.1398 -2.8139,2.0263 -0.8163,0.9288 -1.4211,2.0404 -1.7868,3.2223 -0.422,1.3648 -0.6334,2.7859 -0.6193,4.2214 -0.0141,1.4632 0.1829,2.9265 0.5767,4.3339 0.3376,1.1538 0.9569,2.2091 1.8012,3.0816 0.8303,0.8303 1.8435,1.4492 2.9687,1.8013 1.3367,0.4219 2.7437,0.6193 4.1507,0.5907 0.8162,0.0141 1.632,-0.0422 2.4482,-0.1547 0.6897,-0.0985 1.3648,-0.2391 2.0404,-0.4079 0.5063,-0.1266 0.9991,-0.2813 1.4773,-0.4642 0.2532,-0.0844 0.4923,-0.211 0.7037,-0.3657 0.0844,-0.0844 0.1547,-0.1828 0.211,-0.2954 0.0562,-0.1125 0.0984,-0.2531 0.1125,-0.3797 0,-0.1266 0,-0.3235 0,-0.5205 0.0141,-0.2531 0.0141,-0.5063 0,-0.7599 0.0281,-0.2673 0.0281,-0.5486 0,-0.8163 0.0141,-0.1687 -0.0281,-0.3235 -0.0985,-0.4782 0,-0.1406 -0.0984,-0.2391 -0.1969,-0.2672 -0.0844,-0.0563 -0.1969,-0.0844 -0.2954,-0.0844 -0.2672,0.014 -0.5345,0.0703 -0.7881,0.1828 -0.3797,0.1688 -0.788,0.3095 -1.196,0.4079 -0.5485,0.2813 -1.1397,0.5064 -1.7305,0.6897 -0.7599,0.1266 -1.5476,0.1969 -2.3216,0.1828 -0.7459,0.0282 -1.4914,-0.0844 -2.1951,-0.3235 -0.5908,-0.1828 -1.1257,-0.5204 -1.5336,-0.985 -0.3938,-0.4501 -0.6755,-0.985 -0.8303,-1.5617 -0.211,-0.6756 -0.3094,-1.3789 -0.2954,-2.0826 l 10.8058,-0.002 c 0.422,0.014 0.8303,-0.1407 1.1257,-0.4361 0.3094,-0.3938 0.4501,-0.9006 0.3938,-1.4069 z m -12.3257,-0.6611 c 0.0281,-0.5908 0.1266,-1.1819 0.2954,-1.7586 0.1547,-0.5064 0.3938,-0.985 0.7177,-1.407 0.3095,-0.4079 0.7037,-0.7318 1.1538,-0.971 0.5205,-0.2391 1.0976,-0.3516 1.6743,-0.3375 1.0835,-0.0985 2.1388,0.3516 2.814,1.196 0.6474,0.9709 0.9428,2.1388 0.8443,3.3067 z"
       style="fill:#0066ac;fill-rule:evenodd"
       id="path4" />
    <path
       d="m 591.0179,348.0007 c 0,-0.1266 -0.0422,-0.2532 -0.1266,-0.3658 -0.1125,-0.1265 -0.2672,-0.2109 -0.422,-0.2531 -0.2672,-0.0704 -0.5345,-0.1266 -0.8021,-0.1548 -0.422,-0.0281 -0.8444,-0.0281 -1.2663,0 -0.422,-0.0281 -0.8444,-0.0281 -1.2664,0 -0.2672,0.0282 -0.5345,0.0704 -0.7881,0.1548 -0.1688,0.0281 -0.3094,0.1266 -0.4219,0.2531 -0.0844,0.1126 -0.1266,0.2392 -0.1266,0.3658 v 9.4695 h -9.6243 v -9.4695 c 0,-0.1266 -0.0422,-0.2532 -0.1125,-0.3658 -0.1125,-0.1265 -0.2532,-0.2109 -0.422,-0.2531 -0.2532,-0.0704 -0.5204,-0.1266 -0.7881,-0.1548 -0.422,-0.0281 -0.8584,-0.0281 -1.2804,0 -0.4219,-0.0281 -0.8443,-0.0281 -1.2663,0 -0.2673,0.0282 -0.5345,0.0704 -0.7881,0.1548 -0.1688,0.0281 -0.3094,0.1266 -0.422,0.2531 -0.0984,0.0985 -0.1406,0.2251 -0.1547,0.3658 v 24.356 c 0,0.1266 0.0563,0.2532 0.1547,0.3376 0.0985,0.1406 0.2532,0.225 0.422,0.2532 0.2532,0.0984 0.5204,0.1547 0.7881,0.1828 0.3376,0 0.774,0 1.2663,0 0.4923,0 0.9569,0 1.2804,0 0.2673,-0.0281 0.5345,-0.0985 0.7881,-0.1828 0.1688,-0.0422 0.3095,-0.1266 0.422,-0.2532 0.0703,-0.0985 0.1125,-0.211 0.1125,-0.3376 v -10.4405 l 9.6243,4e-4 v 10.4405 c 0,0.1266 0.0422,0.2391 0.1266,0.3376 0.0984,0.1406 0.2531,0.225 0.4219,0.2532 0.2532,0.0984 0.5205,0.1547 0.7881,0.1828 0.3517,0 0.7741,0 1.2664,0 0.5204,0 0.9287,0 1.2663,0 0.2672,-0.0281 0.5345,-0.0984 0.8021,-0.1828 0.1688,-0.0422 0.3095,-0.1266 0.422,-0.2532 0.0844,-0.0985 0.1266,-0.211 0.1266,-0.3376 z m 21.6265,14.1832 c 0.014,-1.1679 -0.1548,-2.3358 -0.4923,-3.4614 -0.2813,-1.0413 -0.7741,-1.9982 -1.4773,-2.814 -0.7037,-0.8022 -1.5899,-1.4351 -2.589,-1.8294 -1.2241,-0.4642 -2.5186,-0.6896 -3.8271,-0.6615 -1.2804,-0.0141 -2.5608,0.211 -3.7568,0.6756 -1.0834,0.4641 -2.0403,1.1678 -2.8139,2.0403 -0.8163,0.9429 -1.4211,2.0404 -1.7868,3.2364 -0.8303,2.814 -0.8303,5.7971 0,8.6111 0.3376,1.1538 0.9428,2.2092 1.7586,3.0816 0.8303,0.8163 1.8435,1.4352 2.9547,1.8013 1.3647,0.422 2.7858,0.6193 4.2213,0.5907 0.8303,0 1.6602,-0.0562 2.4764,-0.1687 0.6756,-0.0985 1.3648,-0.2251 2.0263,-0.3939 0.4782,-0.1125 0.9569,-0.2672 1.407,-0.4642 0.2532,-0.0843 0.4923,-0.2109 0.7037,-0.3797 0.0844,-0.0844 0.1688,-0.1969 0.211,-0.3095 0.0844,-0.0984 0.1266,-0.225 0.1266,-0.3516 0.014,-0.1829 0.014,-0.3517 0,-0.5345 0,-0.211 0,-0.436 0,-0.7318 0,-0.2958 0,-0.6193 0,-0.8303 -0.0141,-0.1688 -0.0563,-0.3376 -0.0985,-0.5064 -0.0422,-0.0985 -0.1125,-0.1829 -0.211,-0.2391 -0.0984,-0.0563 -0.1969,-0.0844 -0.3094,-0.0844 -0.2673,0.0141 -0.5205,0.0844 -0.76,0.1828 l -1.21,0.422 c -0.5627,0.1829 -1.1398,0.3095 -1.7165,0.4079 -0.7599,0.1407 -1.5336,0.211 -2.3076,0.1969 -0.7459,0.0141 -1.4914,-0.0984 -2.2091,-0.3235 -0.5767,-0.211 -1.0976,-0.5485 -1.5195,-0.9991 -0.3939,-0.4501 -0.6897,-0.999 -0.8585,-1.5757 -0.1828,-0.6756 -0.2672,-1.3648 -0.2672,-2.0685 l 10.7913,-8e-4 c 0.422,0.0281 0.8303,-0.1266 1.1257,-0.422 0.3235,-0.3939 0.4782,-0.9006 0.4219,-1.407 z m -12.3398,-0.6189 c 0.0141,-0.6053 0.1266,-1.2101 0.3094,-1.7868 0.1548,-0.5064 0.3798,-0.985 0.7037,-1.407 0.6615,-0.8725 1.7165,-1.3648 2.814,-1.3226 1.0835,-0.0984 2.1388,0.3517 2.814,1.196 0.6615,0.9851 0.9569,2.167 0.8584,3.3489 z m 31.532,-1.0694 c 0.0282,-1.0694 -0.1125,-2.1389 -0.436,-3.1661 -0.2813,-0.8303 -0.76,-1.5898 -1.407,-2.181 -0.7178,-0.5907 -1.5476,-1.0272 -2.4483,-1.2663 -1.1678,-0.2954 -2.3638,-0.422 -3.5739,-0.4079 -0.774,0 -1.5336,0.0703 -2.2935,0.1969 -0.6756,0.1125 -1.3508,0.2673 -2.0123,0.4782 -0.5626,0.1829 -1.1116,0.4079 -1.6461,0.6615 -0.3516,0.1548 -0.6755,0.3658 -0.9709,0.6194 -0.1829,0.1828 -0.3095,0.4079 -0.3798,0.6615 -0.0703,0.3235 -0.0844,0.6474 -0.0703,0.9709 -0.0141,0.2813 -0.0141,0.5626 0,0.8444 0.0281,0.2109 0.0844,0.436 0.1688,0.6333 0.0703,0.1548 0.1688,0.2813 0.2954,0.3939 0.0984,0.0844 0.225,0.1406 0.3657,0.1406 0.2953,-0.0281 0.5767,-0.1266 0.8303,-0.2813 0.3516,-0.1828 0.7599,-0.3938 1.2663,-0.6052 0.5626,-0.2532 1.1397,-0.4642 1.7305,-0.6334 0.7318,-0.1969 1.4773,-0.2813 2.2373,-0.2813 0.5345,-0.0141 1.0694,0.0703 1.5757,0.211 0.4079,0.0984 0.7741,0.3094 1.0554,0.6193 0.2813,0.2954 0.4641,0.6615 0.5626,1.0553 0.1266,0.4642 0.1829,0.9288 0.1829,1.407 v 1.0835 l -1.5613,-4e-4 c -1.4211,-0.0282 -2.8281,0.0844 -4.2214,0.3516 -1.0553,0.1829 -2.0685,0.5626 -2.9972,1.0976 -0.7741,0.4923 -1.3789,1.1819 -1.7868,1.9981 -0.4079,0.8444 -0.6193,1.7727 -0.5908,2.7015 -0.0281,0.8584 0.1407,1.7164 0.4783,2.5045 0.3235,0.7037 0.8021,1.3226 1.407,1.8012 0.6052,0.5064 1.3085,0.8725 2.0544,1.0976 0.8443,0.2531 1.7164,0.3797 2.5889,0.3657 1.0694,0.014 2.1247,-0.211 3.1098,-0.6475 0.9287,-0.4501 1.7727,-1.0694 2.4904,-1.8293 v 1.4069 c 0,0.1688 0.0563,0.3236 0.1688,0.4502 0.1688,0.1125 0.3657,0.1969 0.5767,0.225 0.436,0.0281 0.8584,0.0281 1.2945,0 0.5626,0 0.985,0 1.2663,0 0.225,-0.0422 0.436,-0.1125 0.6334,-0.225 0.1266,-0.1126 0.1969,-0.2814 0.1828,-0.4502 z m -4.8262,7.4151 c -0.5204,0.6193 -1.1397,1.1538 -1.8153,1.5898 -0.5907,0.3517 -1.2663,0.5345 -1.9559,0.5345 -0.7037,0.0422 -1.393,-0.1969 -1.9419,-0.6474 -0.4783,-0.4501 -0.7319,-1.0976 -0.7037,-1.7586 -0.0141,-0.408 0.0844,-0.8022 0.2532,-1.1679 0.1828,-0.3517 0.4641,-0.6475 0.8021,-0.8584 0.422,-0.2814 0.9006,-0.4642 1.407,-0.5486 0.6756,-0.1266 1.3648,-0.1829 2.0544,-0.1688 h 1.9283 z m 14.8869,-21.6546 c 0,-0.1407 -0.0422,-0.2673 -0.1265,-0.3798 -0.1126,-0.1125 -0.2532,-0.211 -0.408,-0.2532 -0.2391,-0.0984 -0.4923,-0.1547 -0.7459,-0.1688 -0.4079,-0.0422 -0.8302,-0.0703 -1.2381,-0.0562 -0.408,0 -0.8163,0.014 -1.2242,0.0703 -0.2672,0.0281 -0.5345,0.0844 -0.7881,0.1688 -0.1547,0.0563 -0.2954,0.1407 -0.4079,0.2532 -0.0703,0.1125 -0.1125,0.2391 -0.1125,0.3798 v 26.1854 c 0,0.1266 0.0422,0.2391 0.1125,0.3375 0.0985,0.1266 0.2532,0.211 0.4079,0.2532 0.2532,0.0844 0.5205,0.1407 0.7881,0.1547 0.2954,0 0.7037,0 1.2242,0 0.4501,0 0.8724,0 1.196,0 0.2531,-0.014 0.5063,-0.0703 0.7458,-0.1547 0.1688,-0.0281 0.3095,-0.1266 0.408,-0.2532 0.0843,-0.0984 0.1265,-0.2109 0.1265,-0.3375 z m 15.4777,23.5257 c 0,-0.2531 0,-0.4219 -0.0844,-0.5767 -0.0281,-0.1125 -0.0984,-0.2109 -0.1828,-0.2813 -0.0704,-0.0422 -0.1407,-0.0844 -0.2251,-0.0844 -0.1125,0.0141 -0.225,0.0422 -0.3235,0.0844 l -0.4079,0.1688 -0.5767,0.1547 c -0.2391,0.0282 -0.4642,0.0282 -0.7037,0 -0.6334,0.0844 -1.2523,-0.1969 -1.632,-0.7037 -0.3376,-0.6755 -0.4923,-1.421 -0.4501,-2.1669 v -8.3157 l 3.8544,4e-4 c 0.2672,0 0.4642,-0.1688 0.6052,-0.4923 0.1547,-0.5064 0.211,-1.0272 0.1829,-1.5477 0.0281,-0.3235 0.0281,-0.6474 0,-0.9709 -0.0282,-0.211 -0.0704,-0.422 -0.1266,-0.6334 -0.0703,-0.1266 -0.1547,-0.225 -0.2532,-0.3235 -0.1125,-0.0703 -0.225,-0.0985 -0.3516,-0.0985 l -3.8557,-4e-4 v -3.9537 c 0,-0.1406 -0.0422,-0.2672 -0.1266,-0.3798 -0.1125,-0.1125 -0.2391,-0.1969 -0.3798,-0.2672 -0.2532,-0.0844 -0.5204,-0.1407 -0.7881,-0.1547 -0.3094,0 -0.7459,0 -1.2241,0 -0.4782,0 -0.8725,0 -1.1819,0 -0.2673,0.014 -0.5345,0.0703 -0.7881,0.1547 -0.1547,0.0563 -0.2954,0.1547 -0.4079,0.2672 -0.0704,0.1126 -0.1126,0.2392 -0.1126,0.3798 v 3.9537 h -2.0825 c -0.1266,0 -0.2532,0.0282 -0.3517,0.0985 -0.1125,0.0844 -0.2109,0.1969 -0.2672,0.3235 -0.0563,0.211 -0.0985,0.422 -0.1266,0.6334 -0.0141,0.3235 -0.0141,0.6474 0,0.9709 -0.0281,0.5204 0.0281,1.0413 0.1829,1.5477 0.1406,0.3235 0.3375,0.4923 0.5907,0.4923 l 2.1107,4e-4 v 9.0897 c -0.0141,0.9569 0.1125,1.8997 0.3657,2.814 0.1829,0.7318 0.5486,1.4211 1.0413,1.9982 0.4923,0.5345 1.1257,0.9428 1.8153,1.1678 0.8444,0.2532 1.7164,0.3798 2.5889,0.3657 0.3517,0.0282 0.7178,0.0282 1.0694,0 0.3376,-0.0422 0.6756,-0.0984 1.0132,-0.1828 0.2813,-0.0422 0.5626,-0.1266 0.8303,-0.2391 0.1969,-0.0704 0.3797,-0.1969 0.5345,-0.3517 0.1406,-0.1969 0.2531,-0.4219 0.2953,-0.6615 0.0704,-0.436 0.0985,-0.8865 0.0985,-1.3226 0.0281,-0.3094 0.0281,-0.6052 0,-0.9147 z m 20.7821,-8.2028 c 0.0141,-1.1256 -0.0984,-2.2654 -0.3516,-3.3629 -0.1969,-0.8725 -0.5627,-1.6883 -1.1116,-2.4061 -0.5205,-0.7037 -1.2101,-1.2663 -1.9982,-1.632 -0.9569,-0.422 -1.9982,-0.6334 -3.0535,-0.6053 -0.9709,0 -1.9419,0.211 -2.814,0.6334 -0.985,0.4783 -1.8715,1.1257 -2.6311,1.8997 v -9.8493 c 0,-0.1407 -0.0562,-0.2813 -0.1406,-0.3798 0,-0.0984 -0.1829,-0.1688 -0.3798,-0.2532 -0.3095,-0.1265 -0.6334,-0.1969 -0.971,-0.225 -0.3938,-0.0563 -0.8021,-0.0703 -1.196,-0.0703 -0.4079,0 -0.8303,0.014 -1.2382,0.0703 -0.2531,0.0281 -0.5204,0.0844 -0.7599,0.1688 -0.1407,0.0562 -0.2813,0.1406 -0.3939,0.2532 -0.0703,0.1125 -0.1125,0.2391 -0.1125,0.3797 v 26.1855 c 0,0.1265 0.0422,0.2391 0.1125,0.3375 0.0985,0.1266 0.2392,0.211 0.3939,0.2532 0.2532,0.0844 0.5063,0.1266 0.7599,0.1547 0.3095,0 0.7319,0 1.2382,0 0.5064,0 0.8866,0 1.196,0 0.2673,-0.014 0.5205,-0.0703 0.7741,-0.1547 0.1547,-0.0281 0.2953,-0.1266 0.3797,-0.2532 0.0844,-0.0844 0.1407,-0.211 0.1407,-0.3375 v -11.8194 c 0.5767,-0.774 1.2523,-1.4492 2.0263,-2.0263 0.5486,-0.436 1.2241,-0.6756 1.9278,-0.7037 0.4501,0 0.9147,0.0844 1.3226,0.2813 0.3657,0.211 0.6896,0.4923 0.9288,0.8303 0.2531,0.3939 0.436,0.8162 0.5345,1.2664 0.1406,0.6615 0.1969,1.3366 0.1828,2.0122 v 10.1592 c -0.0141,0.1265 0.0281,0.2391 0.1125,0.3375 0.1126,0.1266 0.2532,0.2251 0.422,0.2532 0.2391,0.0844 0.4923,0.1407 0.7459,0.1547 0.3235,0 0.7459,0 1.2241,0 0.4783,0 0.9007,0 1.2242,0 0.2532,-0.014 0.5204,-0.0703 0.7599,-0.1547 0.1548,-0.0422 0.2954,-0.1266 0.3939,-0.2532 0.0703,-0.0984 0.1125,-0.211 0.1266,-0.3375 z"
       style="fill:#0066ac;fill-rule:evenodd"
       id="path6" />
    <path
       d="M 389.6117,321.6465 H 367.816 l -3.0957,8.2735 h 22.3869 z M 259.6415,334.7743 H 202.754 c 0.1969,0.1548 0.3657,0.3376 0.5345,0.4923 3.4895,3.0395 8.6955,5.6425 15.6183,7.8094 h 46.8273 c -0.4361,-1.0553 -0.9429,-2.0685 -1.5196,-3.0394 -1.2241,-1.9978 -2.7721,-3.7709 -4.573,-5.2623 z m 125.9739,0.0141 h -22.71 l -3.1238,8.2876 h 23.3433 z m -85.2395,8.2876 h 25.3269 v -8.2876 h -25.3269 z m -82.524,8.597 -24.8347,0.0985 c 0.1547,1.4914 0.3797,2.9828 0.6755,4.4464 h 24.975 c -0.5064,-1.4632 -0.76,-2.9972 -0.7881,-4.5449 z m 82.5521,4.5449 h 25.327 v -8.2876 h -25.327 z m 97.9735,-13.1419 h 23.92 l -3.1097,-8.2876 H 395.8167 Z M 300.3759,329.92 h 25.3269 v -8.2735 h -25.3269 z m -64.0495,17.9822 c 1.3507,0.4782 2.6029,1.1819 3.7145,2.0825 1.7305,1.407 2.7578,3.5037 2.814,5.7269 0,0.1547 0,0.3094 0,0.4782 h 24.3565 c 0.1828,-1.3226 0.2672,-2.6452 0.2813,-3.9818 -0.0141,-1.4492 -0.1407,-2.8843 -0.3798,-4.3058 z M 251.6493,329.92 c -7.0353,-2.7577 -14.3098,-4.8403 -21.7249,-6.2472 -2.3498,-0.4361 -4.6293,-1.1117 -6.8384,-2.0263 h -26.8606 c 0.2532,2.9124 1.1397,5.7408 2.603,8.2735 z M 409.24,308.5186 h -36.5837 l -3.1098,8.2595 h 42.761 z m 19.699,52.4974 h -75.9813 l -3.1098,8.3017 h 25.1582 l 1.1679,-3.9397 h 28.7883 l 1.182,3.9397 h 25.8478 z m 39.8056,-39.3977 H 443.277 v 8.3017 h 25.4676 z m 42.9997,33.5162 c -0.999,-1.8153 -2.195,-3.5177 -3.5458,-5.0935 -0.6615,-0.8303 -1.2663,-1.5476 -1.8012,-2.1529 h -28.6477 c 1.6742,1.7446 3.0675,3.7568 4.1225,5.9378 l 1.2522,2.3498 H 512.321 Z M 239.83,361.6212 c -2.378,1.8294 -5.3326,2.7296 -8.3298,2.5468 -3.4333,0.1406 -6.7963,-0.9851 -9.4415,-3.1661 h -27.0293 c 1.0694,2.9973 2.603,5.7972 4.5589,8.3017 h 61.6431 c 0.6755,-0.8022 1.3085,-1.6602 1.8856,-2.5467 1.1538,-1.8013 2.0966,-3.7287 2.814,-5.755 h -25.4677 c -0.1969,0.2251 -0.4079,0.4361 -0.6474,0.6193 z M 394.3394,329.92 h 22.9772 l -3.0957,-8.2876 h -22.4005 z m 48.9657,26.2698 h 25.4817 v -8.2876 h -25.4817 z m -19.2063,-8.2735 h -66.1321 l -3.1098,8.2876 h 72.2949 z M 231.1344,380.377 c 7.9501,0 14.563,-1.1397 19.6987,-3.4473 1.7445,-0.774 3.4192,-1.7164 4.9809,-2.814 h -51.4843 c 5.6284,4.1366 14.563,6.2051 26.8043,6.2051 z m 115.1536,-1.4632 h 25.9041 l 1.407,-4.7981 h -25.4817 z m 58.59,-82.2708 h -27.6768 l -2.603,7.0353 h 32.8972 z m -149.8939,4.4745 c -5.5017,-3.9115 -13.5076,-5.8674 -23.9903,-5.8674 -8.5408,0 -15.2526,1.0694 -20.1492,3.2223 -2.9405,1.2241 -5.6283,2.9687 -7.9359,5.1497 h 54.9457 c -0.8585,-0.9147 -1.8013,-1.7587 -2.814,-2.5046 z m 96.7213,-4.4745 H 274.514 v 7.0353 h 77.1351 z m -51.2733,82.2708 h 25.327 v -4.8121 h -25.327 z m 107.3024,-4.7981 1.407,4.7981 h 26.5511 l -1.7445,-4.7418 z m 113.9717,0 h -28.8728 l 2.617,4.7981 h 28.6618 z m -78.3027,4.7981 h 25.4818 v -4.8121 h -25.5802 z m 60.2923,-80.2023 c -4.1365,-1.407 -10.1306,-2.0263 -17.9822,-2.0263 h -42.4085 v 7.0353 h 68.2423 c -2.1951,-2.2794 -4.9246,-3.9818 -7.95,-4.9528 z m 11.1583,62.3608 h -29.0983 l 4.4746,8.2454 h 28.9009 z m -71.549,8.2454 h 25.4817 v -8.3017 h -25.4817 z m -142.9292,0 h 25.3269 v -8.3017 h -25.3269 z m -78.5563,-56.8032 c 1.9279,-1.3929 4.2777,-2.0544 6.6415,-1.8716 3.0254,-0.1969 6.0222,0.6897 8.4424,2.5186 1.1678,0.985 2.0825,2.2232 2.6733,3.6162 l 24.7784,4e-4 c -0.5486,-2.8843 -1.5195,-5.6706 -2.8984,-8.2595 h -62.3471 c -1.4914,2.5326 -2.4623,5.3466 -2.814,8.2595 h 23.3007 c 0.0844,-1.6602 0.8866,-3.2083 2.2232,-4.2214 z m 129.8295,-3.9537 H 274.514 v 8.2735 h 77.1351 z m 117.1377,4.7981 h 11.1719 c 4.6574,0 7.8094,0.7037 9.4977,2.1528 0.4641,0.3798 0.8725,0.8163 1.21,1.3086 h 26.6219 c -0.2391,-2.8703 -1.0131,-5.6847 -2.3076,-8.2595 h -71.6756 v 8.2595 h 25.4817 z m 21.5983,13.0294 c -0.9991,1.3507 -2.4764,2.2654 -4.1225,2.5889 -2.2091,0.4923 -3.9115,0.8303 -5.1637,0.985 h 34.1772 c 1.21,-2.603 1.9137,-5.4174 2.0685,-8.2876 h -25.3274 c 0.014,1.7024 -0.5486,3.3629 -1.5899,4.7137 m 7.176,16.322 c 3.1239,-0.6052 6.1488,-1.7024 8.9346,-3.2504 2.0967,-1.2523 3.996,-2.8281 5.6284,-4.6574 h -68.8612 v 8.2876 h 55.3676 c -0.3797,-0.1126 -0.7318,-0.2392 -1.1256,-0.3798 z m 0,0 z"
       style="fill:#0066ac;fill-rule:evenodd"
       id="path8" />
    <path
       d="m 181.0572,184.219 -39.7071,81.0326 -79.7241,10.3702 51.9343,61.6993 -12.5507,89.9817 72.956,-38.8491 56.986,39.3273 8.4705,-3.7849 -65.5972,-54.9175 -55.3817,29.914 14.4364,-65.9347 -39.7075,-47.0523 58.2242,-8.1751 29.1686,-58.5337 36.105,65.3018 4.7137,-4.573 z"
       style="fill:#0066ac;fill-rule:evenodd"
       id="path10" />
    <path
       d="M 548.0744,289.4248 V 422.0261"
       style="fill:#9c9e9f;fill-rule:evenodd;stroke:#cbc9ca;stroke-width:0.9833;stroke-linecap:butt;stroke-linejoin:miter;stroke-dasharray:none"
       id="path12" />
  </g>
</svg>
